<?xml version="1.0" encoding="utf-8"?>
<!-- Generator: Adobe Illustrator 20.0.0, SVG Export Plug-In . SVG Version: 6.00 Build 0)  -->
<svg version="1.1" id="Layer_1" xmlns="http://www.w3.org/2000/svg" xmlns:xlink="http://www.w3.org/1999/xlink" x="0px" y="0px"
	 viewBox="0 0 272 180" style="enable-background:new 0 0 272 180;" xml:space="preserve">
<style type="text/css">
	.st0{fill:#323232;}
</style>
<g>
	<path class="st0" d="M135.6,19.2c30,0,54.3,24.3,54.3,54.3s-24.3,54.3-54.3,54.3s-54.3-24.3-54.3-54.3S105.6,19.2,135.6,19.2z
		 M93.9,73.5c0,23,18.7,41.7,41.7,41.7s41.7-18.7,41.7-41.7s-18.7-41.7-41.7-41.7S93.9,50.5,93.9,73.5z"/>
	<polygon class="st0" points="135.6,31.8 210.6,161.1 148.1,161.1 148.1,148.5 190,148.5 135.6,54.7 81.3,148.5 123.2,148.5 
		123.2,161.1 60.7,161.1 	"/>
</g>
</svg>
