<?xml version="1.0" encoding="utf-8"?>
<!-- Generator: Adobe Illustrator 20.0.0, SVG Export Plug-In . SVG Version: 6.00 Build 0)  -->
<svg version="1.1" id="Layer_1" xmlns="http://www.w3.org/2000/svg" xmlns:xlink="http://www.w3.org/1999/xlink" x="0px" y="0px"
	 viewBox="0 0 272 180" style="enable-background:new 0 0 272 180;" xml:space="preserve">
<style type="text/css">
	.st0{fill:#26A69A;}
</style>
<g>
	<path class="st0" d="M135.8,19.6c-39.2,0-71,31.8-71,71s31.8,71,71,71s71-31.8,71-71S174.9,19.6,135.8,19.6z M184.9,139.6
		c-13.1,13.3-30.4,20.4-49.1,20.4s-36.1-7.1-49.1-20.4c-13.1-13.3-20.4-30.4-20.4-49.1s7.1-36.1,20.4-49.1S117,21,135.8,21
		s36.1,7.1,49.1,20.4c13.1,13.3,20.4,30.7,20.4,49.1S198.2,126.6,184.9,139.6z"/>
	<path class="st0" d="M135.8,22.4c-37.8,0-68.1,30.4-68.1,68.1s30.4,68.1,68.1,68.1s68.1-30.4,68.1-68.1S173.5,22.4,135.8,22.4z
		 M182.9,137.6c-12.8,12.8-29.2,19.6-47.1,19.6s-34.6-6.8-47.1-19.6S69,108.4,69,90.5s6.8-34.6,19.6-47.1
		c12.8-12.5,29.2-19.6,47.1-19.6s34.6,6.8,47.1,19.6s19.6,29.5,19.6,47.1C202.5,108.4,195.7,125.1,182.9,137.6z"/>
	<path class="st0" d="M181.7,90.5c0-25.3-20.7-46-46-46s-46,20.7-46,46s20.7,46,46,46S181.7,116.1,181.7,90.5z M135.8,135.1
		c-24.7,0-44.6-19.9-44.6-44.6S111.1,46,135.8,46s44.6,19.9,44.6,44.6S160.5,135.1,135.8,135.1z"/>
	<path class="st0" d="M84.1,90.5c0-1.4-0.3-2.8-0.9-4.3h-1.7c0.6,0.6,0.9,2.3,0.9,4.3c0,3.1-1.4,4.5-2.8,4.5c-1.4,0-2.8-1.4-3.1-4.5
		c0-2,0.6-3.4,0.9-4.3h-1.4c-0.6,1.4-0.6,2.8-0.6,4.3c0,3.7,2,6.2,4.5,6C82.4,96.8,84.1,94.2,84.1,90.5z"/>
	<path class="st0" d="M79.8,83.4c2.6,0.6,4.8-1.4,5.7-4.8s-0.3-6.5-2.8-6.8c-2.6-0.6-4.8,1.4-5.7,4.8C76.1,79.7,77.6,82.9,79.8,83.4
		z M78.4,76.9c0.6-2.6,2-4,3.7-3.4c1.7,0.6,2.6,2.6,1.7,4.8c-0.6,2.6-2,4-3.7,3.4C78.4,81.1,77.8,79.2,78.4,76.9z"/>
	<polygon class="st0" points="91.5,63.5 90.1,62.7 87.2,68.7 81,65.3 80.4,66.7 87.8,70.6 	"/>
	<path class="st0" d="M88.1,60.4c2,1.4,4.8,0.9,7.4-2c2.3-2.8,2.6-5.7,0.6-7.7c-2-1.4-4.8-0.9-7.4,2C86.4,55.6,86.1,58.7,88.1,60.4z
		 M89.8,53.9c1.4-2,3.4-2.6,4.8-1.4c1.4,1.1,1.1,3.4-0.6,5.1c-1.4,2-3.4,2.6-4.8,1.4C87.8,57.9,88.1,55.6,89.8,53.9z"/>
	<path class="st0" d="M102,51.1l-1.7-2.3l2.6-2l3.4,1.1l1.4-1.1l-3.7-1.1c1.1-1.1,0.9-2.3,0.6-3.4c-0.9-1.1-2.6-1.4-4.3-0.3
		l-4.5,3.4l5.1,6.5L102,51.1z M97.7,45.4l2.8-2.3c1.1-0.6,1.7-0.6,2.3,0s0.6,1.4-0.6,2l-2.8,2.3L97.7,45.4z"/>
	<path class="st0" d="M116.2,42.5l-0.9-2.6l3.1-1.1l2.8,2l1.7-0.6l-3.1-2.3c1.1-0.9,1.4-2,1.1-3.1c-0.6-1.4-1.7-2.3-3.7-1.4
		l-5.7,1.7l2.6,7.9L116.2,42.5z M117.3,34.9c1.1-0.6,1.7,0,2,0.6c0.3,0.6,0,1.4-1.1,1.7l-3.4,1.1l-0.9-2.6L117.3,34.9z"/>
	<path class="st0" d="M130.6,39.4c3.7-0.6,6-2.3,5.7-4.8c-0.3-2.6-2.8-4.3-6.5-3.7c-3.4,0.6-6,2.6-5.7,4.8
		C124.4,38.3,127.2,39.4,130.6,39.4z M130.1,32c2.6-0.3,4.5,0.6,4.5,2.6c0.3,1.7-1.4,3.1-4,3.4s-4.5-0.6-4.5-2.6
		S127.5,32.3,130.1,32z"/>
	<path class="st0" d="M144.3,39.7c3.7,0.6,6.2-0.6,6.8-3.4c0.6-2.6-1.7-4.5-5.4-5.4c-3.4-0.6-6.2,0.6-6.5,3.4S140.9,39.1,144.3,39.7
		z M141.1,34.6c0.3-1.7,2.3-2.6,4.5-2.3c2.6,0.6,4,1.7,3.7,3.4s-2.3,2.6-4.5,2.3C142.3,38,140.6,36.6,141.1,34.6z"/>
	<polygon class="st0" points="157.3,37.7 158.5,44.5 164.4,41.1 163.6,46.8 165.6,47.4 166.1,38.3 159.6,42 158.2,34.6 151.4,40.8 
		153.1,41.4 	"/>
	<polygon class="st0" points="174.1,51.3 177.8,55.3 178.9,54.5 175.2,50.5 176.9,48.8 181.5,53.6 182.6,52.8 176.9,46.5 
		170.7,52.5 171.8,53.6 	"/>
	<rect x="177" y="57.6" transform="matrix(0.8171 -0.5764 0.5764 0.8171 -0.5729 115.1608)" class="st0" width="8.5" height="1.7"/>
	<polygon class="st0" points="183.4,70.6 184.9,69.8 181.7,64.4 188,61 187.1,59.6 179.8,63.5 	"/>
	<polygon class="st0" points="184,71.2 184.6,72.9 190,73.8 185.7,78.9 192,81.4 187.1,84.6 187.7,86.3 195.1,80.9 188.3,78 
		193.1,72.6 	"/>
	<path class="st0" d="M193.4,87.7c-4,0-1.4,7.4-4,7.4c-0.9,0-1.1-1.4-1.1-3.1c0-1.4,0.3-3.1,0.6-4.5h-1.4c-0.3,1.4-0.6,2.8-0.6,4.5
		c0,2.3,0.3,4.8,2.6,4.8c4,0.3,1.7-7.4,4-7.4c0.9,0,0.9,2,0.9,2.8c0,1.4-0.3,2.6-0.6,3.7h1.4c0.3-0.9,0.6-2.3,0.6-3.7
		C195.9,90.5,195.7,88,193.4,87.7z"/>
	<polygon class="st0" points="88.6,116.6 84.4,117.5 87.2,114.4 86.6,113.2 81.5,115.5 81.8,116.3 85.2,114.9 83.2,117.2 
		83.5,118.3 86.6,118.1 83.5,119.8 84.1,120.6 88.9,117.8 	"/>
	<path class="st0" d="M91.2,121.2c-0.9-1.4-1.7-1.4-2.6-0.6l-2,1.1c-0.6,0.6-1.1,1.4-0.3,2.6c0.9,1.4,1.7,1.4,2.6,0.6l2-1.4
		C91.8,123.4,92,122.3,91.2,121.2z M90.3,123.2l-1.7,1.4c-0.6,0-1.1,0-1.4-0.6c-0.6-0.6-0.6-1.1,0-1.4l1.7-1.4c0.6,0,0.9,0,1.4,0.6
		S90.6,122.6,90.3,123.2z"/>
	<polygon class="st0" points="95.2,127.7 95.7,127.1 93.2,124 92.6,124.6 93.5,125.7 89.8,128.8 90.6,129.7 94.3,126.6 	"/>
	
		<rect x="92.9" y="130.1" transform="matrix(0.7065 -0.7078 0.7078 0.7065 -64.3826 106.1075)" class="st0" width="5.7" height="1.1"/>
	<path class="st0" d="M100.8,131.7c-1.1-1.1-2.3-0.6-2.6,0l-1.4,1.7c-0.6,0.6-0.6,1.7,0.6,2.6c1.1,1.1,2.3,0.6,2.6,0l1.4-1.7
		C102,133.7,102.3,132.8,100.8,131.7z M100.8,133.7l-1.4,1.7c-0.6,0.6-0.6,0.6-1.4,0.3c-0.9-0.3-0.6-0.9-0.3-1.4l1.4-1.7
		c0.6-0.6,0.6-0.6,1.4,0C100.8,133.1,100.8,133.7,100.8,133.7z"/>
	<polygon class="st0" points="104.5,139.6 105.1,135.1 104,134.2 100.8,139.1 101.7,139.6 104,135.9 103.7,140.8 104.8,141.6 
		107.9,136.8 106.8,136.2 	"/>
	<path class="st0" d="M113.9,139.9l-2-0.9l-2.3,5.1l0.9,0.6l0.6-1.7l0.9,0.6c1.1,0.6,2,0.3,2.3-0.6l0.3-0.6
		C115.3,141,115,140.5,113.9,139.9z M113.9,141.6l-0.3,0.6c-0.3,0.6-0.6,0.6-0.9,0.3l-0.9-0.6l0.9-1.7l0.9,0.6
		C113.9,141,113.9,141.3,113.9,141.6z"/>
	
		<rect x="114" y="143.6" transform="matrix(0.3333 -0.9428 0.9428 0.3333 -57.9935 206.2382)" class="st0" width="5.7" height="1.1"/>
	<path class="st0" d="M119.9,143.9l-0.6,2.6c-0.3,0.9,0.3,1.7,1.4,2c0.6,0.3,1.1,0.3,1.4,0.3l0.3-0.9c-0.6,0-0.9-0.3-1.4-0.3
		c-0.6-0.3-0.9-0.6-0.6-1.1l0.6-2c0.3-0.6,0.6-0.6,1.1-0.6c0.6,0,0.9,0.3,1.4,0.6l0.6-0.9c-0.6-0.3-0.9-0.6-1.4-0.6
		C120.7,142.5,120.1,142.7,119.9,143.9z"/>
	<polygon class="st0" points="124.7,144.4 126.1,144.7 125.5,149.3 126.4,149.6 127.2,144.7 128.9,145 128.9,144.2 125,143.6 	"/>
	<path class="st0" d="M133.2,148.4c0,0.6-0.3,0.9-1.1,0.9c-0.6,0-0.9-0.6-0.9-0.9l0.3-4h-1.1l-0.3,4c0,0.9,0.6,1.7,2,1.7
		s2.3-0.6,2.3-1.4l0.3-4h-1.1L133.2,148.4z"/>
	<path class="st0" d="M140.6,146.7v-0.6c0-0.9-0.6-1.4-1.7-1.4l-2.3,0.3l0.3,5.7h1.1V149h1.1l1.4,1.7h1.4l-1.4-2
		C140.3,147.9,140.6,147.3,140.6,146.7z M138.9,147.3h-1.1v-2h1.1c0.6,0,0.9,0.3,0.9,0.6v0.6C139.7,147,139.4,147.3,138.9,147.3z"/>
	<polygon class="st0" points="144.3,148.7 144.3,147 146.5,146.7 146.3,145.9 144,146.2 143.7,144.7 146.3,144.4 146,143.6 
		142.6,144.2 143.4,149.8 146.8,149 146.8,148.1 	"/>
	<polygon class="st0" points="154.5,141 154.5,145.6 151.7,142.2 150.5,142.5 152.2,147.9 153.4,147.6 152.2,143.9 153.9,146.4 
		155.3,145.9 155.3,142.7 156.5,146.4 157.6,145.9 155.6,140.8 	"/>
	<polygon class="st0" points="160.5,143.9 159.9,142.5 161.9,141.6 161.6,140.8 159.6,141.6 158.7,140.5 161,139.3 160.7,138.5 
		157.6,139.9 159.9,145 163,143.6 162.7,142.7 	"/>
	<polygon class="st0" points="165.6,135.4 166.7,139.6 163.3,136.8 162.4,137.6 165,142.5 165.8,141.9 164.1,138.8 166.7,140.8 
		167.5,139.9 167,136.8 169,139.9 169.8,139.6 166.7,134.8 	"/>
	<path class="st0" d="M172.7,132.2c-0.6-0.6-1.4-1.1-2.6,0c-1.4,1.1-1.1,2-0.6,2.6l1.4,1.7c0.6,0.6,1.4,1.1,2.6,0
		c1.4-1.1,1.1-2,0.6-2.6L172.7,132.2z M172.9,135.9c-0.6,0.6-1.1,0.6-1.4,0l-1.4-1.7c-0.6-0.6-0.3-0.9,0.3-1.4
		c0.6-0.6,1.1-0.6,1.4,0l1.4,1.7C173.8,135.1,173.5,135.7,172.9,135.9z"/>
	<path class="st0" d="M177.5,128.6l-0.6-0.6c-0.6-0.6-1.4-0.6-2.6,0.3l-1.4,1.4l4,4l0.6-0.6l-1.4-1.4l0.6-0.6l2.3,0.6l0.9-1.1
		l-2.6-0.6C178.1,129.4,177.8,128.8,177.5,128.6z M176.6,130.3l-0.9,0.6l-1.4-1.4l0.9-0.9c0.6-0.6,0.6-0.6,1.1,0l0.6,0.6
		C176.9,129.4,176.9,129.7,176.6,130.3z"/>
	
		<rect x="179.3" y="123.7" transform="matrix(0.6332 -0.774 0.774 0.6332 -31.9921 185.6256)" class="st0" width="1.1" height="5.7"/>
	<polygon class="st0" points="183.7,124.6 182.6,123.4 183.7,121.7 182.9,121.5 181.7,123.2 180.6,122.3 181.7,120.3 181.2,119.8 
		179.2,122.6 184,125.7 186,122.9 184.9,122.3 	"/>
	<path class="st0" d="M187.4,117.2c-0.9-0.6-1.4-0.6-2.3,0.6c-0.6,0.6-0.6,0.6-1.4,0.6c-0.6-0.3-0.6-0.6-0.3-1.1
		c0.3-0.6,0.6-0.9,0.9-1.4l-0.3-0.6c-0.6,0.6-0.6,0.9-0.9,1.4c-0.6,1.4-0.6,2,0.6,2.6c1.1,0.6,1.4,0.6,2.3-0.6
		c0.6-0.9,0.6-0.6,1.4-0.6c0.6,0.3,0.6,0.6,0.3,1.1c-0.3,0.6-0.6,0.9-1.1,1.4l0.6,0.6c0.6-0.3,0.9-0.9,1.1-1.4
		C188.8,118.3,188.3,117.5,187.4,117.2z"/>
	<path class="st0" d="M135.8,47.1c-23.8,0-43.4,19.6-43.4,43.4s19.6,43.4,43.4,43.4s43.4-19.6,43.4-43.4S159.6,47.1,135.8,47.1z
		 M136.9,80.9h-17c-6.8,0-9.1,4.8-9.1,9.7c0,5.1,2.3,9.9,9.1,9.9h17v7.9h-17c-11.1,0-16.2-7.7-16.2-17.9s4.8-17.6,16.2-17.6h17V80.9
		z M157.6,108.4L149.7,97H144l-4.8-7.7h12.8c5.1,0,6-2.8,6-4.5c0-1.7-1.1-4.5-6-4.5h-12.8v-7.7h15c9.9,0,13.1,7.7,13.1,12.2
		c0,3.4-2,8.5-8.2,10.8l8.5,12.8L157.6,108.4C157.6,108.4,157.6,108.4,157.6,108.4z"/>
	<circle class="st0" cx="79.3" cy="105" r="2"/>
	<circle class="st0" cx="190.5" cy="105" r="2"/>
</g>
</svg>
