<?xml version="1.0" encoding="utf-8"?>
<!-- Generator: Adobe Illustrator 20.0.0, SVG Export Plug-In . SVG Version: 6.00 Build 0)  -->
<svg version="1.1" id="Layer_1" xmlns="http://www.w3.org/2000/svg" xmlns:xlink="http://www.w3.org/1999/xlink" x="0px" y="0px"
	 viewBox="0 0 272 180" style="enable-background:new 0 0 272 180;" xml:space="preserve">
<style type="text/css">
	.st0{fill:#DDDDDD;}
	.st1{fill:#FFD500;}
</style>
<g>
	<path class="st0" d="M65.2,120.7c-0.2,0-0.4-0.2-0.4-0.4V59.8c0-0.2,0.2-0.4,0.4-0.4s0.4,0.2,0.4,0.4v60.5
		C65.6,120.5,65.4,120.7,65.2,120.7z"/>
	<g>
		<path class="st1" d="M42.5,102.8c-0.6-0.5-0.8-1.2-0.8-2V79.2c0-0.8,0.3-1.4,0.8-2c0.5-0.6,1.2-0.8,2-0.8c0.8,0,1.4,0.3,2,0.8
			c0.6,0.5,0.8,1.2,0.8,2v21.6c0,0.8-0.3,1.4-0.8,2c-0.5,0.6-1.2,0.8-2,0.8C43.7,103.7,43,103.4,42.5,102.8z"/>
		<path class="st1" d="M42.5,74c-0.6-0.5-0.8-1.2-0.8-2l0,0c0-0.8,0.3-1.4,0.8-2c0.5-0.6,1.2-0.8,2-0.8c0.8,0,1.4,0.3,2,0.8
			c0.6,0.5,0.8,1.2,0.8,2l0,0c0,0.8-0.3,1.4-0.8,2c-0.5,0.6-1.2,0.8-2,0.8C43.7,74.9,43,74.6,42.5,74z"/>
		<path d="M37.2,82c-3.2,0-5.9,1.1-8.1,3.4c-2.2,2.2-3.4,4.9-3.4,8.1s1.1,5.9,3.4,8.1c2.2,2.2,5,3.4,8.1,3.4l7.2,0.1v0
			c1.6,0,2.8,1.3,2.8,2.8c0,1.6-1.3,2.8-2.8,2.8h0h0l-7.2-0.1c-4.7,0-8.8-1.7-12.2-5c-3.3-3.3-5-7.4-5-12.1c0-4.7,1.7-8.8,5-12.1
			c3.4-3.4,7.4-5,12.2-5c1.6,0,2.8,1.3,2.8,2.8C40,80.8,38.8,82,37.2,82L37.2,82z"/>
	</g>
	<g>
		<path d="M84.9,102.3c-0.5,0-0.9-0.2-1.3-0.5c-0.4-0.4-0.5-0.8-0.5-1.3V82.1c0-0.5,0.2-0.9,0.5-1.3c0.3-0.3,0.8-0.5,1.3-0.5h4.7
			c3,0,5.6,1.1,7.8,3.2c2.1,2.2,3.2,4.8,3.2,7.8c0,3-1.1,5.6-3.2,7.8c-2.2,2.2-4.8,3.2-7.8,3.2L84.9,102.3L84.9,102.3z M86.7,98.7
			l2.8,0c2,0,3.8-0.7,5.2-2.2c1.4-1.4,2.2-3.2,2.2-5.2c0-2-0.7-3.8-2.2-5.2c-1.4-1.4-3.2-2.2-5.2-2.2h-2.8V98.7z"/>
		<path d="M108,102.3c-0.5,0-0.9-0.2-1.3-0.5c-0.4-0.3-0.5-0.8-0.5-1.3V82.1c0-0.5,0.2-0.9,0.5-1.3c0.3-0.4,0.8-0.5,1.3-0.5
			c0.5,0,0.9,0.2,1.3,0.5c0.4,0.3,0.5,0.8,0.5,1.3v18.4c0,0.5-0.2,0.9-0.5,1.3C108.9,102.1,108.5,102.3,108,102.3z"/>
		<path d="M126.1,102.3c-3,0-5.6-1.1-7.8-3.2c-2.2-2.2-3.2-4.8-3.2-7.8c0-3,1.1-5.6,3.2-7.8c2.2-2.2,4.8-3.2,7.8-3.2
			c2.5,0,4.7,0.8,6.7,2.3c0.4,0.3,0.6,0.7,0.7,1.2c0.1,0.5-0.1,0.9-0.4,1.3c-0.3,0.4-0.7,0.6-1.2,0.7c-0.5,0.1-1,0-1.4-0.4
			c-1.3-1-2.8-1.5-4.5-1.5c-2,0-3.8,0.7-5.2,2.2c-1.4,1.4-2.2,3.2-2.2,5.2c0,2,0.7,3.8,2.2,5.2c1.4,1.4,3.2,2.2,5.2,2.2
			c1.9,0,3.6-0.6,5-1.9c0,0,0.1-0.1,0.1-0.1l0-4h-6c-0.5,0-0.9-0.2-1.3-0.5c-0.4-0.4-0.5-0.8-0.5-1.3c0-0.5,0.2-0.9,0.5-1.3
			c0.3-0.4,0.8-0.5,1.3-0.5h7.9c0.5,0,0.9,0.2,1.3,0.5c0.4,0.4,0.5,0.8,0.5,1.3l0,9.8c0,0.5-0.2,0.9-0.5,1.3
			c-0.3,0.4-0.8,0.5-1.3,0.5h0c-0.4,0-0.8-0.1-1.1-0.4c-0.3-0.2-0.5-0.6-0.6-0.9C129.7,101.8,128,102.3,126.1,102.3z"/>
		<path d="M142.5,102.3c-0.5,0-0.9-0.2-1.3-0.5c-0.4-0.3-0.5-0.8-0.5-1.3V82.1c0-0.5,0.2-0.9,0.5-1.3c0.3-0.4,0.8-0.5,1.3-0.5
			c0.5,0,0.9,0.2,1.3,0.5c0.4,0.3,0.5,0.8,0.5,1.3v18.4c0,0.5-0.2,0.9-0.5,1.3C143.4,102.1,143,102.3,142.5,102.3z"/>
		<path d="M155.2,83.8h-4.6c-0.5,0-0.9-0.2-1.3-0.5c-0.3-0.3-0.5-0.8-0.5-1.3c0-0.5,0.2-0.9,0.5-1.3c0.4-0.4,0.8-0.5,1.3-0.5h12.8
			c0.5,0,0.9,0.2,1.3,0.5c0.3,0.3,0.5,0.8,0.5,1.3c0,0.5-0.2,0.9-0.5,1.3c-0.4,0.4-0.8,0.5-1.3,0.5h-4.6v16.7c0,0.5-0.2,0.9-0.5,1.3
			c-0.3,0.3-0.8,0.5-1.3,0.5c-0.5,0-0.9-0.2-1.3-0.5c-0.4-0.4-0.5-0.8-0.5-1.3V83.8z"/>
		<path d="M168.9,102.2c-0.5-0.2-0.8-0.5-1-1c-0.2-0.5-0.2-0.9,0-1.4l2-4.7v0l5.7-13.7c0-0.1,0-0.1,0.1-0.2l0-0.1
			c0,0,0.1-0.1,0.1-0.1c0,0,0,0,0-0.1c0,0,0.1-0.1,0.1-0.1c0,0,0,0,0-0.1c0,0,0.1-0.1,0.1-0.1c0,0,0,0,0.1,0c0,0,0.1-0.1,0.1-0.1
			c0,0,0,0,0.1,0c0,0,0.1-0.1,0.1-0.1l0.1,0c0.1,0,0.1,0,0.1,0c0,0,0.1,0,0.1,0c0.1,0,0.1,0,0,0c0,0,0,0,0.1,0c0.1,0,0.1,0,0.1,0
			c0,0,0,0,0.1,0l0.1,0c0,0,0.1,0,0.1,0l0.1,0c0,0,0,0,0.1,0c0,0,0.1,0,0.1,0c0,0,0.1,0,0.1,0h0.1l0.1,0l0.1,0c0,0,0.1,0,0.1,0
			c0.1,0,0.1,0,0.1,0c0.1,0,0.2,0.1,0.3,0.1c0,0,0,0,0.1,0c0.1,0,0.1,0.1,0.1,0.1l0.1,0c0,0,0.1,0.1,0.1,0.1c0,0,0,0,0.1,0
			s0.1,0.1,0.1,0.1c0,0,0,0,0,0.1c0,0,0.1,0.1,0.1,0.1l0,0.1c0,0,0.1,0.1,0.1,0.1c0,0,0,0,0,0.1c0,0,0,0.1,0,0.1
			c0,0.1,0.1,0.1,0.1,0.2l5.7,13.7v0l2,4.7c0.2,0.5,0.2,0.9,0,1.4c-0.2,0.5-0.5,0.8-1,1c-0.2,0.1-0.5,0.1-0.7,0.1
			c-0.8,0-1.4-0.4-1.7-1.1l-1.5-3.6h-8.9l-1.5,3.6c-0.3,0.7-0.9,1.1-1.7,1.1c-0.2,0-0.4,0-0.4,0S169.1,102.3,168.9,102.2z M180.2,94
			l-3-7.1l-3,7.1H180.2z"/>
		<path d="M192.8,80.2c0.5,0,0.9,0.2,1.3,0.5c0.4,0.3,0.5,0.8,0.5,1.3v16.6h8.2c0.5,0,0.9,0.2,1.3,0.5c0.3,0.3,0.5,0.8,0.5,1.3
			c0,0.5-0.2,0.9-0.5,1.3c-0.4,0.4-0.8,0.5-1.3,0.5h-10c-0.5,0-0.9-0.2-1.3-0.5c-0.4-0.3-0.5-0.8-0.5-1.3V82c0-0.5,0.2-0.9,0.5-1.3
			C191.9,80.4,192.3,80.2,192.8,80.2z"/>
		<path class="st1" d="M209.3,101.4c0,0.3-0.1,0.5-0.3,0.6c-0.2,0.2-0.4,0.3-0.6,0.3c-0.3,0-0.5-0.1-0.6-0.3
			c-0.2-0.2-0.3-0.4-0.3-0.6V81.2c0-0.3,0.1-0.5,0.3-0.6c0.2-0.2,0.4-0.3,0.6-0.3c0.3,0,0.5,0.1,0.6,0.3c0.2,0.2,0.3,0.4,0.3,0.6
			V101.4z"/>
		<path class="st1" d="M220.4,92.2c-2.5,0-4.3-0.7-5.6-2c-1-1.1-1.5-2.3-1.4-3.7c0.1-1.7,0.8-3.2,2.1-4.4c1.3-1.2,2.9-1.8,4.7-1.8
			c1.6,0,3.1,0.3,4.3,1c1.5,0.8,2.5,2,2.9,3.5c0.1,0.2,0,0.5-0.1,0.7c-0.1,0.2-0.3,0.4-0.6,0.4c-0.2,0.1-0.5,0-0.7-0.1
			c-0.2-0.1-0.4-0.3-0.4-0.6c-0.3-1.1-1-1.9-2.2-2.4c-1-0.5-2.1-0.7-3.3-0.7c-1.3,0-2.5,0.4-3.5,1.3c-1,0.9-1.5,1.9-1.5,3.2
			c0,0.9,0.3,1.7,0.9,2.4c0.9,1,2.3,1.4,4.3,1.5c0.3,0,0.5,0.1,0.6,0.3c0.2,0.2,0.3,0.4,0.3,0.7c0,0.2-0.1,0.5-0.3,0.6
			C220.9,92.1,220.7,92.2,220.4,92.2L220.4,92.2z M216.4,101.3c-1.5-0.8-2.5-2-2.9-3.5c-0.1-0.2,0-0.5,0.1-0.7
			c0.1-0.2,0.3-0.4,0.6-0.4c0.2-0.1,0.5,0,0.7,0.1c0.2,0.1,0.4,0.3,0.4,0.6c0.3,1.1,1,1.9,2.2,2.4c1,0.5,2.1,0.7,3.3,0.7
			c1.3,0,2.5-0.4,3.5-1.3c1-0.9,1.5-1.9,1.5-3.2c0-0.9-0.3-1.7-0.9-2.4c-0.9-1-2.3-1.4-4.3-1.5c-0.3,0-0.5-0.1-0.6-0.3
			c-0.2-0.2-0.3-0.4-0.3-0.6c0-0.3,0.1-0.5,0.3-0.6c0.2-0.2,0.4-0.3,0.6-0.3c2.5,0,4.3,0.7,5.6,2.1c1,1.1,1.5,2.3,1.4,3.7
			c-0.1,1.7-0.8,3.2-2.1,4.4c-1.3,1.2-2.9,1.8-4.7,1.8C219.1,102.3,217.7,102,216.4,101.3z"/>
		<path class="st1" d="M240.9,102.3c-3.1,0-5.7-1.1-7.8-3.2c-2.2-2.2-3.2-4.8-3.2-7.8c0-3.1,1.1-5.7,3.2-7.8
			c2.2-2.2,4.8-3.2,7.8-3.2s5.7,1.1,7.8,3.2c2.2,2.2,3.2,4.8,3.2,7.8c0,3.1-1.1,5.7-3.2,7.8C246.6,101.2,244,102.3,240.9,102.3z
			 M240.9,82.1c-2.5,0-4.7,0.9-6.5,2.7c-1.8,1.8-2.7,4-2.7,6.5c0,2.5,0.9,4.7,2.7,6.5c1.8,1.8,4,2.7,6.5,2.7c2.5,0,4.7-0.9,6.5-2.7
			c1.8-1.8,2.7-4,2.7-6.5c0-2.5-0.9-4.7-2.7-6.5C245.6,83,243.5,82.1,240.9,82.1z"/>
	</g>
</g>
</svg>
