<?xml version="1.0" encoding="utf-8"?>
<!-- Generator: Adobe Illustrator 20.0.0, SVG Export Plug-In . SVG Version: 6.00 Build 0)  -->
<svg version="1.1" id="Layer_1" xmlns="http://www.w3.org/2000/svg" xmlns:xlink="http://www.w3.org/1999/xlink" x="0px" y="0px"
	 viewBox="0 0 272 180" style="enable-background:new 0 0 272 180;" xml:space="preserve">
<style type="text/css">
	.st0{fill:#262E6F;}
</style>
<g>
	<path class="st0" d="M55,57.4c0.8,0.1,1.5,0.2,2.3,0.3c2.6,0.4,5.2,1.1,7.6,2.1c3.1,1.3,5.9,3,8.5,5.2c3.1,2.6,5.7,5.7,7.6,9.3
		c1.9,3.4,3.1,7.1,3.7,10.9c0.4,2.5,0.3,5.1,0.2,7.7c-0.1,2.5-0.7,4.9-1.4,7.2c-0.9,2.7-2.1,5.3-3.7,7.7c-1.3,2.1-2.9,4-4.7,5.7
		c-2.1,2-4.3,3.7-6.8,5.1c-2.8,1.6-5.8,2.7-9,3.4c-1.4,0.3-2.9,0.5-4.4,0.6c-1.2,0.1-2.4,0.1-3.6,0.1c-2.7-0.1-5.4-0.5-8-1.3
		c-3.3-1-6.3-2.4-9.1-4.3c-2.6-1.8-4.9-3.9-6.9-6.4c-2.3-2.8-4-5.8-5.3-9.2c-1-2.6-1.7-5.3-1.9-8.1c0-0.4-0.1-0.8-0.2-1.2
		c0-1.4,0-2.8,0-4.3c0.1-0.6,0.1-1.1,0.2-1.7c0.4-3.7,1.5-7.2,3.1-10.5c1.1-2.2,2.3-4.2,3.9-6.1c1.4-1.7,2.9-3.3,4.6-4.7
		c2.1-1.8,4.5-3.3,7-4.4c3-1.4,6.1-2.3,9.4-2.8c0.6-0.1,1.3-0.2,1.9-0.2C51.5,57.4,53.2,57.4,55,57.4z M48.5,58.9
		c-5.1,0.1-12.7,3.2-18.8,9.7c-6.1,6.5-8.9,14.3-8.4,23.2c0.4,7.8,3.4,14.6,9,20.1c6.6,6.6,14.6,9.6,23.9,9.1
		c15.4-0.8,29.6-13.7,29.2-32C83,72.5,69.4,58.9,48.5,58.9z"/>
	<path class="st0" d="M251.8,95.6c-53.1,0-106.2,0-159.3,0c0-0.4,0-0.8,0-1.3c0.3,0,0.5,0,0.7,0c52.6,0,105.2,0,157.8,0
		c0.9,0,0.8,0,0.8,0.8C251.8,95.3,251.8,95.5,251.8,95.6z"/>
	<path class="st0" d="M251.5,93.9c-53,0-105.9,0-158.8,0c0-0.4,0-0.8,0-1.3c0.2,0,0.4,0,0.5,0c52.5,0,105.1,0,157.6,0
		c0.5,0,0.7,0.1,0.6,0.6C251.5,93.4,251.5,93.6,251.5,93.9z"/>
	<path class="st0" d="M176.9,73.6c0-0.2,0-0.3,0-0.5c0.2,0,0.4,0,0.5,0c3.3,0,6.7-0.1,10,0c1.2,0,2.5,0.2,3.6,0.6
		c2.9,1,4.1,4.6,2.3,7.1c-0.7,1-1.8,1.6-3,2c-0.1,0-0.2,0.1-0.4,0.1c0.4,0.6,0.7,1.1,1.1,1.6c1.3,1.8,2.6,3.7,4,5.5
		c0.5,0.6,1,1.2,1.9,1.2c0,0.2,0,0.3,0,0.5c-0.2,0-0.3,0-0.5,0c-1.7,0-3.4,0-5.1,0c-0.2,0-0.5-0.1-0.6-0.3c-1.9-2.6-3.7-5.2-5.6-7.8
		c-0.4-0.6-0.9-0.3-1.5-0.4c0,0.6,0,1.1,0,1.6c0,1.5,0,2.9,0,4.4c0,1.5,0.5,2,2,2c0.2,0,0.3,0,0.6,0c0,0.2,0,0.3,0,0.5
		c-3.2,0-6.4,0-9.6,0c-0.1-0.4,0-0.6,0.4-0.5c0.3,0,0.7,0,1-0.1c0.8-0.2,1.2-0.6,1.2-1.4c0-1.2,0.1-2.5,0.1-3.7c0-2.8,0-5.6,0-8.4
		c0-0.9,0-1.7-0.1-2.6c0-0.7-0.6-1.3-1.3-1.4C177.7,73.7,177.3,73.6,176.9,73.6z M184,82.2c0.8,0,1.6,0.1,2.4,0
		c1.7-0.2,2.8-0.9,3.2-2.6c0.2-1,0.2-2-0.1-3c-0.3-1.1-1-1.8-2.1-2.2c-1.1-0.3-2.2-0.3-3.4-0.3C184,76.9,184,79.6,184,82.2z"/>
	<path class="st0" d="M112.7,91.8c0-0.2,0-0.3,0-0.5c0.4,0,0.7,0,1.1,0c0.9,0,1.5-0.6,1.5-1.5c0-4.7,0.1-9.3,0.1-14
		c0-1.5-0.4-1.9-1.8-2.1c-0.3,0-0.5,0-0.9,0c0-0.2,0-0.3,0-0.5c5.3,0,10.5,0,15.8,0c0,1.8,0,3.6,0,5.5c-0.2,0-0.3,0-0.5,0
		c-0.2-0.6-0.4-1.1-0.5-1.7c-0.5-1.4-1.5-2.3-3-2.5c-1.5-0.2-3-0.2-4.6-0.3c0,2.6,0,5.1,0,7.6c1.1,0.3,2.7-0.3,3.1-1.3
		c0.3-0.8,0.6-1.7,0.8-2.6c0.1-0.3,0.1-0.5,0.6-0.4c0,3.3,0,6.5,0,9.8c-0.4,0.1-0.5,0-0.6-0.4c-0.1-0.9-0.4-1.7-0.8-2.5
		c-0.6-1.1-1.7-1.5-3.1-1.3c0,0.2,0,0.4,0,0.5c0,1.7,0,3.4,0,5.1c0,0.4,0,0.8,0.1,1.2c0.1,0.5,0.5,0.9,1.2,0.9c1.3,0,2.5,0,3.8-0.2
		c2.1-0.4,3.3-1.8,4.1-3.7c0.1-0.2,0.2-0.4,0.2-0.6c0.1-0.4,0.1-0.4,0.6-0.3c-0.1,0.7-0.2,1.5-0.3,2.2c-0.2,1.1-0.3,2.2-0.4,3.3
		c0,0.3-0.1,0.4-0.4,0.4c-5.2,0-10.5,0-15.7,0C112.9,91.8,112.8,91.8,112.7,91.8z"/>
	<path class="st0" d="M155.1,73.6c0-0.1,0-0.2,0-0.3c0,0,0-0.1,0.1-0.2c3.2,0,6.4,0,9.6,0c0,0.2,0,0.3,0,0.4c-0.5,0-1,0.1-1.4,0.1
		c-0.7,0.1-1.2,0.5-1.2,1.2c0,0.5-0.1,1-0.1,1.5c0,3.2,0,6.3,0,9.5c0,0.8,0.1,1.6,0.2,2.3c0.2,1.2,1,2,2.1,2.4
		c1.2,0.4,2.5,0.3,3.7-0.2c1.5-0.7,2.4-2,2.4-3.6c0.1-2.7,0.1-5.5,0.2-8.2c0-1.1,0-2.1-0.1-3.2c-0.1-1-0.6-1.5-1.6-1.7
		c-0.3,0-0.6-0.1-0.9-0.1c-0.1-0.3-0.2-0.5,0.3-0.5c2,0,4.1,0,6.2,0c0,0.2,0,0.3,0,0.5c-0.3,0-0.7,0.1-1,0.1
		c-0.8,0.1-1.5,0.7-1.6,1.6c-0.1,0.4-0.1,0.9-0.1,1.3c0,2.9,0,5.9,0,8.8c0,1.1-0.1,2.2-0.5,3.2c-0.6,1.7-2,2.8-3.7,3.3
		c-2.1,0.6-4.2,0.6-6.3-0.1c-2.2-0.7-3.5-2.3-3.7-4.6c-0.1-0.6-0.1-1.2-0.1-1.9c0-3,0-5.9,0-8.9c0-0.5,0-1-0.1-1.5
		c-0.1-0.6-0.6-1.1-1.2-1.1C155.9,73.7,155.5,73.6,155.1,73.6z"/>
	<path class="st0" d="M96.5,92.2c0-2.3,0-4.7,0-7c0.2,0,0.3,0,0.4,0c0.4,0.9,0.6,1.9,1.1,2.7c0.9,1.8,2.4,3,4.5,3.3
		c1.5,0.2,3-0.2,3.8-1.7c0.4-0.9,0.2-2-0.5-2.8c-0.8-0.9-1.8-1.3-2.8-1.9c-1.4-0.8-2.9-1.5-4.3-2.5c-1.4-1-2.3-2.5-2.3-4.3
		c0-2.6,2-4.9,4.6-5.3c1.7-0.3,3.3,0,4.8,0.8c0.2,0.1,0.3,0.1,0.5,0.2c0.9,0.3,1.2,0.2,1.5-0.8c0-0.1,0.2-0.2,0.3-0.3
		c0.1,0.1,0.2,0.2,0.2,0.3c0,1,0,2,0,3c0,1,0,1.9,0,2.9c-0.1,0-0.3,0-0.5,0c0,0,0.1,0,0.1-0.1c-0.4-0.9-0.8-1.9-1.4-2.7
		c-1.2-1.7-2.8-2.5-4.9-2.3c-1.6,0.2-2.7,1.7-2.2,3.1c0.3,0.9,1.1,1.5,2,2c1.8,1,3.7,1.9,5.4,3c1.8,1.1,2.8,2.8,2.7,5.1
		c-0.1,1.5-0.7,2.7-1.8,3.6c-2.5,2.1-5.2,2.1-8.1,0.9c-0.7-0.3-1.4-0.6-2.1,0c-0.1,0.1-0.3,0.3-0.4,0.4
		C96.9,92.3,96.9,92.3,96.5,92.2z"/>
	<path class="st0" d="M246.6,91.8c-3.5,0-7,0-10.5,0c0-0.2,0-0.3,0-0.5c0.1,0,0.1-0.1,0.2-0.1c0.4,0,0.8,0,1.1,0
		c1.1,0,1.7-0.5,1.7-1.6c0-1.5,0-3,0-4.6c0-0.3-0.2-0.7-0.4-1c-1.3-2.3-2.5-4.6-3.8-6.8c-0.5-0.9-1-1.7-1.6-2.6
		c-0.3-0.5-0.8-0.8-1.4-0.9c-0.3,0-0.5-0.2-0.4-0.6c3,0,5.9,0,8.9,0c0.1,0.3,0.1,0.5-0.3,0.5c-1.6,0.1-1.8,0.5-1.1,1.9
		c0.8,1.6,1.7,3.2,2.6,4.8c0.4,0.7,0.8,1.4,1.2,2.1c0.1,0.2,0.2,0.3,0.3,0.6c0.5-0.8,0.9-1.5,1.4-2.3c1-1.7,2-3.3,2.9-5
		c0.8-1.4,0.2-1.8-1.1-2c-0.3,0-0.8,0.1-0.6-0.6c1.9,0,3.8,0,5.9,0c-0.2,0.2-0.3,0.5-0.4,0.5c-1,0.1-1.6,0.8-2.1,1.6
		c-1.4,2.3-2.9,4.7-4.3,7c-0.1,0.1-0.2,0.3-0.2,0.4c-0.7,0.9-0.9,1.9-0.8,3c0.1,1.3,0,2.6,0,3.9c0,1,0.6,1.6,1.6,1.6
		c0.3,0,0.6,0,0.9,0C246.5,91.2,246.7,91.4,246.6,91.8z"/>
	<path class="st0" d="M151.1,87.5c0,0.2,0.1,0.2,0.1,0.2c0.4,1.5-0.8,2.2-1.8,2.9c-1.5,1.1-3.2,1.5-5.1,1.6c-2,0.1-4-0.2-5.8-1.2
		c-2.8-1.5-4.3-3.9-4.8-7c-0.5-3.5,0.7-6.4,3.3-8.7c1.5-1.4,3.4-2.3,5.5-2.6c2.1-0.3,4.1,0.1,6.1,0.9c0.1,0.1,0.3,0.1,0.4,0.2
		c1.3,0.4,1.7,0.2,2.1-1.1c0.1,0,0.3,0,0.5,0c0,0.6,0,1.2,0,1.8c0,1.4,0,2.8,0,4.2c0,0.2-0.2,0.3-0.3,0.5c-0.1-0.1-0.3-0.3-0.4-0.4
		c-0.6-2.1-1.8-3.7-3.9-4.5c-3.1-1.1-6.4,0.4-7.6,3.9c-0.3,1-0.5,2.1-0.6,3.2c-0.2,2,0.1,3.9,0.7,5.7c0.8,2.4,2.4,3.8,5.2,3.8
		c2.1,0,3.9-0.7,5.4-2.2C150.4,88.3,150.7,88,151.1,87.5z"/>
	<path class="st0" d="M228.6,73.2c0,1.7,0,3.3,0,5c-0.4,0.2-0.5,0-0.6-0.4c-0.2-0.6-0.4-1.2-0.7-1.8c-0.5-1-1.3-1.6-2.5-1.7
		c-0.8-0.1-1.5,0-2.3,0c0,0.1,0,0.3,0,0.4c0,4.9,0,9.8,0,14.8c0,1,0.4,1.6,1.2,1.8c0.3,0.1,0.7,0,1,0c0.4,0,0.5,0.2,0.4,0.5
		c-3.2,0-6.5,0-9.8,0c0-0.2,0-0.3,0-0.4c0.1,0,0.1-0.1,0.2-0.1c0.3,0,0.6,0,0.9,0c0.8,0,1.5-0.6,1.5-1.5c0-5.1,0-10.2,0-15.3
		c0-0.1,0-0.1,0-0.2c-1.4,0-2.8-0.2-4,0.7c-0.9,0.7-1.3,1.7-1.5,2.8c-0.1,0.2,0,0.5-0.4,0.5c-0.4,0-0.3-0.3-0.3-0.5c0-1.5,0-3,0-4.5
		C217.3,73.2,222.9,73.2,228.6,73.2z"/>
	<path class="st0" d="M198.8,73.1c3.3,0,6.5,0,9.8,0c0,0.1,0,0.3,0,0.4c-0.5,0-0.9,0.1-1.3,0.1c-0.8,0.1-1.3,0.6-1.3,1.4
		c0,2.5-0.1,5.1-0.1,7.6c0,2.1,0,4.2,0,6.2c0,0.4,0,0.8,0.1,1.2c0.1,0.6,0.8,1.1,1.5,1.1c0.3,0,0.7,0,1.1,0c0,0.2,0,0.4,0,0.5
		c-3.3,0-6.5,0-9.8,0c-0.1-0.4,0-0.5,0.4-0.5c0.4,0,0.9,0,1.3-0.2c0.6-0.1,0.9-0.6,0.9-1.2c0-4.7,0.1-9.5,0.1-14.2
		c0-0.7,0-1.5-0.8-1.8c-0.4-0.2-0.9-0.2-1.4-0.2C198.9,73.6,198.7,73.6,198.8,73.1z"/>
	<path class="st0" d="M168.4,106.6c1.1-0.5,1.4-1.6,1.8-2.6c0.9-2.1,1.8-4.3,2.8-6.5c0.1-0.1,0.2-0.2,0.3-0.3
		c0.1,0.1,0.2,0.2,0.3,0.3c1,2.4,2,4.9,3.1,7.3c0.3,0.8,0.7,1.5,1.7,1.6c0,0-0.1,0.1-0.1,0.1c-1.2,0-2.4,0-3.6,0c0,0,0-0.1,0-0.1
		c0.1-0.1,0.3-0.1,0.4-0.2c0.4-0.1,0.6-0.4,0.4-0.8c-0.2-0.5-0.4-1.1-0.7-1.6c-0.1-0.1-0.3-0.3-0.4-0.3c-1,0-1.9,0-2.9,0
		c-0.2,0-0.4,0.2-0.5,0.3c-0.3,0.5-0.5,1-0.7,1.6c-0.2,0.5,0,0.8,0.5,0.9c0.2,0,0.3,0.1,0.4,0.3
		C170.3,106.6,169.3,106.6,168.4,106.6z M174.3,103.1c-0.5-1.2-1-2.4-1.5-3.6c-0.6,1.3-1.1,2.4-1.6,3.6
		C172.3,103.1,173.3,103.1,174.3,103.1z"/>
	<path class="st0" d="M105,97.4c0,0.8,0.1,1.5,0.1,2.2c-0.1,0-0.1,0.1-0.2,0.1c-0.3-0.6-0.3-1.4-1-1.5c-0.6-0.1-1.3-0.1-2.1-0.2
		c0,0.3,0,0.4,0,0.6c0,2.1,0,4.2,0,6.2c0,0.3,0,0.7,0.1,1c0.1,0.2,0.4,0.4,0.7,0.6c0.1,0.1,0.3,0,0.5,0c0,0,0,0.1,0,0.1
		c-1.3,0-2.6,0-3.9,0c0,0,0-0.1,0-0.1c0.2-0.1,0.5-0.1,0.7-0.2c0.2-0.2,0.5-0.4,0.5-0.6c0-2.3,0-4.6,0-7c0-0.2,0-0.4,0-0.7
		c-0.7,0-1.3,0-1.9,0.1c-0.6,0.1-0.8,0.6-0.9,1.2c0,0.1-0.1,0.2-0.2,0.3c0-0.7,0-1.4,0-2c0-0.1,0.2-0.2,0.3-0.2
		C100.2,97.4,102.6,97.4,105,97.4z"/>
	<path class="st0" d="M188.9,103.2c0.8,0,1.6,0,2.4,0c-0.6,0.2-0.7,0.6-0.7,1.1c0,0.5,0,1.1,0,1.6c0,0.2-0.1,0.4-0.2,0.4
		c-1.1,0.5-2.3,0.6-3.5,0.2c-2.2-0.8-2.8-3.5-1.3-5.4c1.1-1.2,2.4-1.4,3.8-0.9c0.3,0.1,0.7,0.4,0.8-0.3c0,0,0.1,0.1,0.1,0.1
		c0.1,0.7,0.1,1.3,0.2,2c-0.1,0-0.1,0-0.2,0.1c-0.1-0.2-0.2-0.3-0.2-0.5c-0.4-0.9-1.1-1.3-2-1.3c-0.9,0-1.6,0.5-2,1.3
		c-0.6,1.3-0.5,2.5,0.3,3.7c0.6,1,1.8,1.3,2.9,0.8c0.1-0.1,0.3-0.3,0.3-0.5c0-0.5,0-1,0-1.5C189.7,103.6,189.7,103.5,188.9,103.2z"
		/>
	<path class="st0" d="M214.8,106.7c-0.7,0-1.4,0-2.1,0c0,0,0,0,0-0.1c0.1,0,0.2-0.1,0.3-0.1c0.4-0.1,0.5-0.3,0.5-0.7
		c0-1.5,0-3,0-4.5c0-0.6-0.5-0.7-1-0.9c-0.1,0-0.2-0.1-0.3-0.1c0.6-0.3,1.7-0.2,2.1,0.3c1.1,1.3,2.1,2.6,3.1,3.8
		c0.1,0.2,0.3,0.3,0.5,0.5c0-1.4,0-2.7,0-4c0-0.2-0.3-0.4-0.5-0.6c-0.1-0.1-0.2,0-0.4-0.2c0.7,0,1.5,0,2.2,0c0,0.1,0,0.1,0,0.1
		c-0.8,0.2-0.9,0.3-0.9,1.2c0,1.6,0,3.2,0,4.8c0,0.2,0,0.3,0,0.6c-1.5-1.8-2.9-3.5-4.3-5.3c0,0.3,0,0.4,0,0.6c0,1.1,0,2.1,0,3.2
		C214,106.3,214.1,106.4,214.8,106.7z"/>
	<path class="st0" d="M203.6,100.2c0,0.5,0.1,1,0.1,1.4c-0.1,0-0.1,0-0.2,0c-0.1-0.1-0.1-0.2-0.2-0.4c-0.1-0.5-0.4-0.7-0.9-0.7
		c-0.6,0-1.3,0-2,0c0,0.8,0,1.6,0,2.5c0.6,0,1.2,0.1,1.8,0c0.3-0.1,0.5-0.5,0.7-0.8c0,0.7,0,1.4,0,2.1c-0.4-1.5-1.6-0.7-2.5-0.9
		c0,0.9,0,1.7,0,2.5c0,0.1,0.2,0.4,0.4,0.4c0.7,0,1.4,0,2-0.1c0.3-0.1,0.5-0.4,0.8-0.7c0.1-0.1,0.2-0.3,0.3-0.5c0.1,0,0.1,0,0.2,0
		c-0.1,0.3-0.2,0.6-0.3,0.8c-0.1,0.6-0.4,0.8-1.1,0.8c-1.4-0.1-2.8,0-4.2,0c0.3-0.2,0.7-0.3,0.8-0.5c0.1-0.2,0.1-0.6,0.1-0.9
		c0-1.3,0-2.5,0-3.8c0-1,0-1-0.9-1.2C199,100.2,202.2,100.1,203.6,100.2z"/>
	<path class="st0" d="M147.8,100.2c0.2,0,0.3,0,0.5,0c1.3,0,2.7,0,4,0c0.4,0,0.6,0.1,0.5,0.5c0,0.3,0,0.6,0.1,0.9c0,0-0.1,0-0.1,0
		c-0.1-0.2-0.2-0.3-0.2-0.5c-0.1-0.4-0.4-0.6-0.9-0.6c-0.7,0-1.3,0-2,0c0,0.8,0,1.6,0,2.5c0.6,0,1.2,0,1.8,0c0.2,0,0.3-0.2,0.5-0.4
		c0.1-0.1,0.1-0.3,0.3-0.5c0,0.7,0,1.5,0,2.2c-0.5-1.5-1.7-0.7-2.6-0.9c0,0.9,0,1.7,0,2.4c0,0.2,0.3,0.4,0.5,0.4
		c0.6,0,1.2,0,1.8-0.1c0.3-0.1,0.6-0.4,0.8-0.7c0.2-0.2,0.3-0.4,0.4-0.6c0,0,0.1,0,0.1,0.1c-0.2,0.5-0.3,1-0.5,1.5
		c0,0.1-0.2,0.1-0.3,0.1c-1.6,0-3.1,0-4.7,0c0.3-0.2,0.6-0.3,0.8-0.5c0.1-0.3,0.1-0.6,0.1-1c0-1.2,0-2.4,0-3.6
		C148.7,100.6,148.7,100.6,147.8,100.2z"/>
	<path class="st0" d="M232.5,105.1c-0.3,1.2-1.8,2-3.1,1.7c-1.3-0.2-2.1-1-2.5-2.3c-0.4-1.3-0.1-2.4,0.8-3.4
		c0.9-1.1,2.6-1.3,3.7-0.7c0.4,0.2,0.4,0.2,0.9-0.4c0.1,0.8,0.1,1.4,0.1,2.1c0,0-0.1,0-0.1,0c-0.1-0.1-0.2-0.2-0.2-0.4
		c-0.4-1.1-1.2-1.4-2.1-1.4c-0.9,0-1.7,0.6-2,1.6c-0.3,1.2-0.4,2.4,0.3,3.4c0.7,1.1,2.4,1.2,3.4,0.3
		C232.1,105.6,232.3,105.3,232.5,105.1z"/>
	<path class="st0" d="M242.1,106.7c0.9-0.4,0.9-0.4,0.9-1.3c0.1-0.9-0.2-1.6-0.7-2.3c-0.3-0.4-0.6-0.9-0.8-1.3
		c-0.4-0.5-0.6-1.2-1.4-1.3c0,0,0-0.1,0.1-0.1c0.9,0,1.8,0,2.9,0c-1,0.5-1,0.5-0.5,1.3c0.4,0.6,0.8,1.2,1.2,1.9
		c0.5-0.8,1-1.6,1.4-2.3c0.3-0.6-0.2-0.7-0.5-0.9c0.8,0,1.5,0,2.3,0c-1.2,0.3-1.4,1.5-2.1,2.3c-0.1,0.1-0.1,0.2-0.1,0.2
		c-0.8,0.8-0.8,1.9-0.8,2.9c0,0.5,0.1,0.6,0.9,0.9C243.9,106.7,243,106.7,242.1,106.7z"/>
	<path class="st0" d="M135.4,106.7c0.9-0.3,0.9-0.3,0.9-1.3c0-1.3,0-2.6,0-3.9c0-0.9,0-0.9-0.9-1.1c0.3-0.2,2.5-0.3,2.9,0
		c0,0,0,0.1,0,0.1c-1,0.1-1,0.2-1,1.1c0,1.4,0,2.7,0,4.1c0,0.6,0.1,0.7,0.7,0.7c0.3,0,0.5,0,0.8,0c0.9,0.1,1.6-0.2,1.9-1.1
		c0-0.1,0.1-0.1,0.3-0.1c-0.2,0.5-0.3,1-0.5,1.5c0,0.1-0.2,0.2-0.3,0.2C138.5,106.7,136.9,106.7,135.4,106.7z"/>
	<path class="st0" d="M126.9,106.7c-1,0-1.9,0-2.8,0c0.9-0.4,0.9-0.4,0.9-1.3c0-1.5,0-3,0-4.6c-1.5-0.2-1.8-0.1-2.1,1
		c-0.2-0.2-0.2-0.2-0.1-1.5c1.7,0,3.4,0,5.3,0c0,0.5,0.1,1,0.1,1.6c-0.3-0.4-0.6-0.8-0.9-1c-0.4-0.2-0.9-0.1-1.4-0.1
		c0,0.6,0,1.2,0,1.7c0,1,0,2,0,3C125.9,106.3,125.9,106.3,126.9,106.7z"/>
	<path class="st0" d="M115.2,106.7c-0.9,0-1.7,0-2.6,0c1-0.1,0.8-0.8,0.8-1.5c0-1.1,0-2.3,0-3.4c0-0.6,0.1-1.4-1-1.4
		c0,0,0.1-0.1,0.1-0.1c0.9,0,1.8,0,2.7,0c0,0,0,0.1,0,0.1c-0.1,0-0.2,0.1-0.3,0.1c-0.4,0.1-0.6,0.3-0.6,0.7c0,1.6,0,3.1,0,4.7
		C114.3,106.4,114.7,106.5,115.2,106.7z"/>
	<path class="st0" d="M49.3,120c-4.9-0.1-11.9-2.7-17.6-8.2c-6.5-6.3-9.7-14-9.3-23C22.9,73.3,35.5,59.8,52.7,60
		C69,60.1,82.5,73.3,82.4,90.4c-0.1,7.8-2.9,14.6-8.3,20.2C68.2,116.8,60.4,120,49.3,120z M32.1,92.5c5.9-0.8,11.7-1.5,17.6-2.3
		c-0.8-0.7-1.5-1.2-2.2-1.9c-2.5-2.5-2.3-6,0-8.3c2-2,4.5-2.5,7.3-1.8c1,0.2,1.9,0.7,2.9,1c0.6,0.2,1.2-0.1,1.3-0.8
		c0.1-0.6,0.4-0.5,0.9-0.5c0,2.6,0,5.2,0,7.9c0,0.1-0.2,0.3-0.3,0.3c-0.1,0-0.3-0.2-0.4-0.3C59,85.6,59,85.4,59,85.2
		c-0.4-2.4-1.5-4.3-3.8-5.3c-1.8-0.8-3.5-0.9-5.2,0.3c-1.4,1-1.9,2.8-1,4.2c0.4,0.7,1.1,1.3,1.7,1.7c1.7,1.1,3.5,2,5.3,3
		c0.2,0.1,0.6,0.1,0.9,0.1c0.8-0.1,1.5-0.2,2.3-0.3c1.8-0.2,3.6-0.5,5.4-0.7c1.7-0.2,3.3-0.4,5-0.6c1-0.1,2-0.3,3-0.4
		c0-3.7,0-7.3,0-10.9c-13.5,0-27,0-40.5,0C32.1,81.7,32.1,87,32.1,92.5z M46,94.5c0.5-0.2,0.7,0,0.7,0.5c0.2,1.8,0.9,3.4,2.3,4.6
		c2,1.6,4.2,2,6.6,1.2c2.6-0.8,3.4-3.8,1.7-5.7c-0.6-0.7-1.4-1.3-2.2-1.8c-1.2-0.8-2.5-1.4-3.7-2.1c-0.7-0.4-1.4-0.8-2.2-0.5
		c-0.4,0.1-0.8,0.1-1.2,0.2c-2.2,0.3-4.5,0.6-6.7,0.9c-1.9,0.2-3.7,0.5-5.6,0.7c-1.2,0.2-2.4,0.3-3.6,0.5c0,3.7,0,7.3,0,11
		c13.5,0,27,0,40.4,0c0-5.4,0-10.8,0-16.3c-5.2,0.7-10.4,1.4-15.7,2.1c0.7,0.5,1.3,0.9,1.8,1.3c0.9,0.8,1.8,1.6,2.3,2.8
		c1.1,2.5,0,5.9-2.3,7.5c-2.3,1.6-4.8,1.7-7.4,1.1c-1.1-0.3-2.2-0.7-3.3-0.9c-0.7-0.2-1.2,0.1-1.3,0.8c-0.1,0.5-0.3,0.6-0.7,0.4
		C46,99.9,46,97.2,46,94.5z M72.6,109.1c-13.5,0-27,0-40.5,0c-0.1,1-0.1,1,0.8,1c13,0,25.9,0,38.9,0c0.2,0,0.5,0,0.7,0
		C72.6,109.7,72.6,109.4,72.6,109.1z M72.6,70.1c-13.5,0-27,0-40.5,0c0,0.3,0,0.6,0,0.8c13.5,0,27,0,40.5,0
		C72.6,70.6,72.6,70.4,72.6,70.1z M53.8,116.2c0.9-0.6,1.7-1.1,2.6-1.7c-0.9-0.1-1.8-0.1-2.6,0.1c-0.4,0.1-0.5,0-0.6-0.4
		c-0.2-0.9-0.5-1.9-0.8-2.9c-0.1,0.3-0.1,0.4-0.2,0.5c-0.2,0.8-0.4,1.7-0.7,2.5c0,0.1-0.2,0.3-0.3,0.3c-0.5,0-1.1-0.1-1.6-0.1
		c-0.4,0-0.8,0-1.3,0c1,0.6,1.8,1.2,2.7,1.7c-0.4,1-0.8,2-1.2,3c0.8-0.5,1.6-1.1,2.3-1.7c0.2-0.2,0.4-0.2,0.6,0
		c0.7,0.6,1.4,1.2,2.2,1.8c0-0.1,0-0.1,0-0.1C54.6,118.2,54.2,117.2,53.8,116.2z M44.7,112.6C44.7,112.6,44.6,112.6,44.7,112.6
		c-0.2,0.3-0.3,0.5-0.3,0.8c-0.1,0.5-0.3,0.7-0.8,0.6c-0.3-0.1-0.7,0-1-0.1c0.3,0.3,0.6,0.5,0.9,0.7c0.3,0.2,0.3,0.4,0.2,0.7
		c-0.1,0.3-0.3,0.7-0.4,1c0,0,0.1,0,0.1,0.1c0.4-0.3,0.8-0.6,1.2-0.9c0.2,0.2,0.4,0.3,0.6,0.5c0.2,0.2,0.4,0.3,0.7,0.6
		c-0.2-0.5-0.3-0.9-0.5-1.3c-0.1-0.3-0.1-0.4,0.2-0.5c0.4-0.2,0.7-0.5,1.2-0.8c-0.3,0-0.4,0-0.5,0c-1.2,0.2-1.3,0.2-1.6-0.9
		C44.8,112.9,44.7,112.8,44.7,112.6z M61.4,116.5c-0.2-0.4-0.2-0.8-0.4-1.1c-0.2-0.4-0.1-0.6,0.2-0.7c0.3-0.2,0.6-0.4,1.1-0.7
		c-0.6,0-1,0.1-1.5,0.1c-0.1,0-0.3-0.2-0.4-0.3c-0.1-0.4-0.2-0.8-0.3-1.3c-0.2,0.6-0.3,1.1-0.5,1.6c-0.6,0-1.1,0-1.7-0.1
		c0.5,0.4,1,0.7,1.4,0.9c-0.2,0.5-0.4,1-0.5,1.5c0.3-0.1,0.5-0.3,0.7-0.5c0.3-0.3,0.6-0.5,1,0C60.8,116.1,61.1,116.2,61.4,116.5z
		 M38.6,114.1c0.4,0.3,0.8,0.6,1.2,0.9c-0.2-0.6-0.4-1-0.5-1.4c0.4-0.3,0.9-0.6,1.3-0.8c-0.4,0-0.9,0-1.3,0c-0.1,0-0.3-0.2-0.4-0.3
		c-0.1-0.3-0.2-0.6-0.3-1c-0.2,0.5-0.2,1.1-0.5,1.3c-0.3,0.2-0.9,0.1-1.4,0.1c0,0,0,0-0.1,0.1c0.4,0.3,0.8,0.5,1.2,0.8
		c-0.2,0.5-0.4,0.9-0.5,1.3c0,0,0.1,0,0.1,0C37.9,114.7,38.2,114.4,38.6,114.1z M65,114.9C65,114.9,65.1,115,65,114.9
		c0.3-0.1,0.5-0.3,0.7-0.5c0.3-0.2,0.5-0.4,0.8,0c0.2,0.2,0.5,0.4,0.9,0.7c-0.2-0.4-0.3-0.7-0.4-1c-0.2-0.3-0.1-0.5,0.2-0.7
		c0.3-0.1,0.5-0.3,0.8-0.5c0,0,0-0.1,0-0.1c-0.5,0-0.9,0-1.4,0c-0.1-0.5-0.2-0.9-0.3-1.3c-0.2,0.3-0.2,0.5-0.3,0.8
		c-0.1,0.4-0.2,0.6-0.6,0.5c-0.3,0-0.6,0-1,0c0.2,0.2,0.3,0.2,0.4,0.3c0.9,0.5,0.9,0.5,0.5,1.5C65.1,114.7,65.1,114.8,65,114.9z"/>
</g>
</svg>
