<?xml version="1.0" encoding="utf-8"?>
<!-- Generator: Adobe Illustrator 20.0.0, SVG Export Plug-In . SVG Version: 6.00 Build 0)  -->
<svg version="1.1" id="Layer_1" xmlns="http://www.w3.org/2000/svg" xmlns:xlink="http://www.w3.org/1999/xlink" x="0px" y="0px"
	 viewBox="0 0 272 180" style="enable-background:new 0 0 272 180;" xml:space="preserve">
<style type="text/css">
	.st0{fill:#E46700;}
	.st1{fill:#545454;}
	.st2{fill:#E11400;}
	.st3{fill:#E11302;}
	.st4{fill:#E01603;}
	.st5{fill:#E11507;}
	.st6{fill:#E11406;}
	.st7{fill:#E11D0C;}
	.st8{fill:#E1351A;}
	.st9{fill:#FEF9CB;}
	.st10{fill:#E11300;}
	.st11{fill:#FDF9CC;}
	.st12{fill:#DFE0E0;}
	.st13{fill:#E01301;}
	.st14{fill:#E21300;}
	.st15{fill:#E00F04;}
</style>
<g>
	<path class="st0" d="M90.3,30.6c4,0.1,8.1,0.9,12.1,1.3c4.7,0.4,9.4,0.4,14.1,0.2c2.1,0,4.4-0.1,6.5,0.2c3.3,0.6,6.5-0.4,9.7-0.5
		c1.2-0.1,2.3,0.4,3.4,0.6c1.5,0.4,3,0.8,4.5,0.8c1.7-0.8,3.4-1.3,5.2-0.9c1.4,0.2,2.7,0.6,4.2,0.6c1.5-0.4,3,0.2,4.4,0.2
		c0.4-0.4,0.8-0.6,1.3-0.6c4.3,0.1,8.4-0.8,12.7-0.2c0.2,0,0.4,0.1,0.6,0.1c0.7,0.4,1.4,1.4,2.4,0.2c0.4-0.5,0.7-1.1,1.3-1.1
		c2.6-0.1,5.2-0.8,7.9-0.5c0.4,0.2,0.6,0.6,0.7,1.1c0.5,1.2,0.9,0.5,1.4,0c0.6-0.2,1.2-0.4,1.8-0.5c1.3-0.1,2.5-0.7,3.7-1.3
		c0.9-0.5,1.9-0.6,2.7,0.4c0.2,0.2,0.5,0.6,0.6,0.9c0.4,1.3,1.1,1.1,1.9,0.6c1.3-0.9,2.5-2.3,4.3-2.6c0.8-0.1,1.7-0.4,2.4,0
		c0.9,0.7,0.5,1.4-0.1,2c-2,2.3-3.8,4.7-6.6,6.2c-0.5,0.4-1.1,0-1.5,0c-0.8,0.5-1.9,0.6-2.8,0.5c-1.4-0.2-2.7-0.1-4.2,0
		c-0.9,0-1.9,0.2-2.8,0c-3.2-0.9-6.4-0.5-9.6,0c-1.7,0.2-3.3-0.1-5-0.2c-2.7-0.2-5.5,0.1-8.2,0.1c-1.2-0.1-2.1-0.9-3.1-1.4
		c-1.4-1.3-2.1,0.2-3.1,0.8c-2,0.6-4.2-0.2-6.3,0.4c-2.7,0.2-5.6-0.6-8.3,0c-1.3-0.4-2.1,0.2-3,1.2c-2.1,2.3-3.6,5.1-5.5,7.6
		c-0.9,1.2-0.6,2.1,0.6,3c0.7,0.5,1.4,0.8,2.1,1.2c2.4,0.9,2.6,1.9,1.5,4.2c-0.1,0.2,0.1,0-0.1,0.1c-1.1,1.4-1.2,2.6,0.2,4
		c0.9,0.9,0.9,2.4,0.7,3.7c-0.4,2.1-0.2,4.2,0,6.3c0.5,3.7,0.5,7.5,0.8,11.1c0.1,1.3-0.4,2.5-1.7,3.1c-1.1,0.6-1.2,1.2-0.6,2.3
		c0.5,0.9,0.7,2,1.4,2.8c0.7,0.8,0,1.4-0.6,1.8c-1.2,0.8-2.5,1.8-3.3,3c-1.3,1.7-1.4,3.6,0.5,4.3c3.8,1.5,3.3,4.6,3.8,7.7
		c0.6,4.4-0.2,8.8,0.7,13c0.5,2.4,0.1,4.6-0.4,7c-0.1,0.7-0.5,1.3-1.1,1.7c-0.5,0.2-1.2,0.5-0.9,1.2c0.2,0.6,0.9,0.4,1.4,0.6
		c0.2,0.1,0.5,0.4,0.6,0.7c0.5,1.4,0.7,2.7,0.5,4.3c-0.1,0.9-0.1,2,0,3c0.5,2.8,0.2,5.6-0.2,8.3c-0.4,2.1-0.4,4.2,0.1,6.3
		c0.2,1.1,0.2,2.3-0.1,3.3c-0.2,0.7-0.6,1.2-1.3,1.4c-2.8,1.1-5.7,2.4-8.4,3.9c-0.6,0.4-1.1,0.5-1.8,0.5s-1.3,1.3-2.1,0.4
		c-0.7-0.7-0.9-1.7-0.6-2.7c0.6-2.5,0.7-5,0.9-7.5c-0.5-2.8-0.7-5.7,1.1-8.3c0.9-1.3-0.4-2.4-0.1-3.6c-0.1-3-0.1-5.9,0.2-8.9
		c0.1-0.7,0.1-1.5,0.5-2.1c0.7-1.4,0.8-2.8-0.1-4.3c-0.2-0.5-0.2-0.9-0.2-1.4c0.5-3.8,0.4-7.6,0.1-11.4c0-0.5,0-0.9,0.1-1.5
		c0.7-2.8,0.4-5.6-0.1-8.3c-0.5-2.7,0.1-5.3,1.3-7.7c0.1-0.4,0.5-0.6,0-0.9c-1.5-0.9-1.3-2.4-1.2-3.8c0.1-1.2,0.4-2.3-0.6-3.2
		c-0.4-0.5-0.4-1.1-0.4-1.7c0.4-3.9,0.1-7.7,0.1-11.6c0-2.3,0.7-3.8,2.7-4.9c1.9-0.9,1.8-1.2,0.1-2.4c-0.5-0.4-0.9-0.6-1.4-0.9
		c-1.1-0.8-1.8-1.7-0.5-3c0.1-0.2,0.1-0.5,0.1-0.7c-0.6-2.1-0.5-4.3-1.5-6.3c-0.2-0.5-0.1-0.9,0.1-1.4c-0.1-1.1-0.2-2.3,0.6-3.2
		c0.5-0.7,0.2-1.3-0.1-1.9c-0.7-1.5-0.1-2.5,1.2-3.4c1.5-1.1,3.3-1.8,5.1-2.8c-2-0.8-3.9-1.1-5.7-1.5c-0.8-0.2-1.4-0.4-1.3-1.4
		c0.1-0.8-0.6-0.8-1.1-0.9c-3-0.7-5.9-0.9-8.9-0.6c-3.1,0.4-6-0.1-9.1-0.1c-2.7,0-5.2-0.7-7.8-1.2c-1.7,0-3,1.1-4.5,1.4
		c-5.7-0.5-11.4,0.8-17-0.5c-1.4-0.4-3,0-4.4,0c-0.4,0-0.7,0.2-0.9-0.2c-0.2-0.4-0.1-0.8,0.1-1.1c1.1-0.9,1.7-2.4,3.2-3
		c1.3-0.5,2.6-1.2,3.8-2c2.4-1.7,5-2.1,7.8-1.8C85.9,28.6,87.9,30,90.3,30.6z"/>
	<path class="st1" d="M122.5,52.6c1.3,2.4,1.5,5,2.3,7.5c-0.7,1.5-2,2.6-3.2,3.6c-7.6,6.2-14,13.6-21.8,19.5
		c-0.1,0.1-0.2,0.1-0.2,0.2c-2.8,4.5-7.1,7.4-10.8,11c-1.4,1.4-2.5,3.1-3.3,5c-1.4,3.1-3.4,5.9-5.2,8.8c-0.5,0.7-0.9,1.4-0.7,2.4
		c0.2,1.2,0.6,1.9,2,2c1.7,0.1,3.3,0.5,4.9,1.1c5.8,2,8.8,7.2,7.7,13.3c-0.4,1.7-1.3,2.8-2.6,3.7c-1.7,1.1-3.3,2.3-5.1,3.4
		c4.3,2.5,7.8,5.7,11.4,8.9c1.7,1.5,4,2.1,5.8,3.7c1.9,1.8,3.4,3.9,4.6,6.3c0.8-1.7,0.6-3.4,0.5-5.1c-0.7-6.9,6.2-12.7,12.8-10.9
		c0.9,0.2,1.9,0.7,2.4,1.7c0.9,1.9,0.5,3.4-0.5,5.5c-0.9,1.8-0.7,4.3-0.9,6.5c-0.8-1.3-1.2-2.8-1.5-4.4c-0.2-1.4-0.9-2.1-2.4-2.1
		c-1.2,0.1-2.4,1.8-2.3,3c0.4,3,0.1,5.9-0.7,8.9c-0.8,2.7-2.4,4.6-5.3,5.1c-3.1,0.5-5.7-0.2-7.8-2.5c-0.8-0.9-1.5-2-1.9-3.2
		c-0.8-2.6-2.8-4.2-5.3-5c-1.3-0.5-2.3-1.1-3.2-2.1c-3.9-4.2-8.2-7.8-13.9-9.4c-2.5-0.7-4.2-5.3-3.3-8.3c0.8-2.8,3.6-4.5,6.5-3.7
		c1.1,0.2,1.8,0.1,2.5-0.7c0.4-0.4,0.8-0.6,1.2-0.8c2-1.2,2-2.7,0-4c-1.4-0.9-3.1-1.3-4.7-1.3c-1.2,0-2.4,0-3.6-0.1
		c-1.8-0.1-3-0.9-3.4-2.6c-0.7-2.7-1.4-5.5-2.1-8.1c-0.2-1.2,0.2-2.1,0.9-3.1c2.4-3.4,4.9-6.8,6.5-10.6c1.1-2.4,2.5-4.3,4.2-6.3
		c1.5-1.9,3-3.7,5.2-4.7c0.9-0.5,1.9-1.3,2.4-2.3c2-3.7,5.6-5.8,8.5-8.5c7.6-7,15.1-13.9,22.8-20.6C121.9,53,122.3,52.8,122.5,52.6z
		"/>
	<path class="st1" d="M184.4,38.1c2.4-0.7,4.7,0.2,7.1,0.1c-1.2,3.8-0.5,7.9-1.8,11.7c-2.7,8.2-3,16.8-5.6,25
		c-2.3,7.1-4.5,14.4-7.7,21.1c-1.8,3.8-4.4,7.2-5.5,11.4c-1.2,4.4-2.6,8.8-5.6,12.3c-0.5,0.5-0.7,1.2-1.1,1.8
		c-1.2,2.8-2.7,5.3-5.2,7.2c-2.6,2-4.3,4.7-4.6,8.2c-0.1,1.1-0.7,1.8-1.4,2.6c-5,5.3-10,10.7-14.6,16.2c-1.4,1.7-3.1,1.9-5,1.2
		c0.1-0.7,0.7-0.7,1.2-1.1c1.9-1.1,2.4-1.9,1.9-4c-0.4-1.7-0.8-3.3-0.2-5c2.3-3.2,5-6,7.7-8.8c1.7-1.8,3-3.6,3.8-5.9
		c1.2-3.8,3.4-6.9,6.5-9.4c1.2-0.9,2.1-2.1,2.7-3.4c1.2-2.5,2.5-4.7,4-7c0.7-0.9,1.1-2,1.4-3.2c1.4-5.3,3.4-10.4,6.4-15.1
		c2.1-3.4,3.3-7.2,4.6-11c3.2-8.9,5.7-17.9,6.8-27.3c0.2-1.7,0.6-3.3,1.2-4.9c0.9-2.3,1.3-4.5,1.3-6.9
		C182.9,41.9,183.1,39.7,184.4,38.1z"/>
	<path class="st1" d="M169,33c-4.9,0.1-9.8,0.1-14.7,0.2c0.9-1.7,2.7-2.6,4.3-3.3c8.5-3.9,17-7.8,26.2-9.8c6-1.4,8.3,0.6,7.6,6.8
		c-0.1,1.3-0.5,2.6-0.7,3.8c-0.1,0.6-0.6,0.8-1.2,0.7c-0.7-0.7-1.4-0.6-2.3-0.1c-1.3,0.6-2.5,1.7-4,1.3c-1.1-1.3,0.1-2.7,0-4.2
		c-0.5-0.5-0.8-0.1-1.2,0c-4.2,1.2-8.2,2.5-12.1,4.3C170.3,32.9,169.7,33.3,169,33z"/>
	<path class="st2" d="M137,146.8c-0.4,1.4-0.1,2.8,0.2,4.3c0.8,3.4,0.5,4.3-2.8,5.5c-0.2,0.1-0.6,0.2-0.8,0.5
		c-2.5,1.7-5.6,2.4-8.1,4.2c-0.7,0.5-1.1,0.4-1.4-0.4c1.5-0.9,3.1-1.8,4.7-2.5c1.9-0.8,3.8-1.8,5.6-2.7c0.9-0.5,1.2-2.1,0.8-3.2
		c-1.1-3-0.6-6-0.1-9c0.2-2,0.4-3.9,0-5.9c-0.4-2.5,0.2-5.1-0.1-7.7c1.3-1.1,2-0.9,2.7,0.4c0.4,0.7,0.6,1.5,0.6,2.4
		c-0.5,3.1,0.4,6,0.1,9C138.2,143.4,138,145.2,137,146.8z"/>
	<path class="st3" d="M193.2,38.2c-0.4-0.1-0.6-0.2,0-0.5c2.8-1.5,4.5-4.3,6.8-6.4c0.5-0.5,0.1-0.8,0-1.2c0.7-0.4,1.4-0.5,2.1,0.1
		c0.5,0.5,0.5,0.7,0,1.2s-0.8,1.4-1.1,1.5c-2.1,1.1-2.7,3.7-5,4.5C195.1,37.7,194.3,38.1,193.2,38.2z"/>
	<path class="st4" d="M190.6,31.2c0.4-0.2,0.8-0.5,1.2-0.7c1.1,0.2,1.2,1.2,1.5,1.9c-0.1,0.7-0.6,1.4-1.2,1.5
		c-0.8,0.1-0.7-0.9-1.1-1.5C190.9,32.2,190.7,31.7,190.6,31.2z"/>
	<path class="st5" d="M90.3,30.6c-1.7,0.2-3-0.5-4.4-1.2c-0.8-0.5-1.7-0.7-2.5-1.1C86,28,88.3,29.1,90.3,30.6z"/>
	<path class="st6" d="M90.8,36.8c1.3-1.1,2.7-2.1,4.5-1.4C93.8,36,92.6,37.4,90.8,36.8z"/>
	<path class="st7" d="M140.6,33.2c-1.7,0.7-3.1-0.4-4.5-0.8C137.6,32.4,139.1,32.5,140.6,33.2z"/>
	<path class="st8" d="M149.9,32.9c-1.4,0.4-2.8,0-4.2-0.6C147.2,32,148.6,32.4,149.9,32.9z"/>
	<path class="st9" d="M137,146.8c0.6-3.7,0.9-7.5,0.4-11.3c-0.2-1.5,0.5-3,0-4.5c-0.5-1.8-1.1-1.9-2.4-1.3c-0.1-0.1-0.2-0.4-0.4-0.5
		c-1.1-0.8-0.6-1.5,0.1-2.3c2-1.9,2.5-4.3,2.1-6.9c-0.4-2-0.6-4.2-0.5-6.2c0.1-4-0.8-8.1-0.5-12.1c0.1-0.7-0.2-1.2-0.8-1.5
		c-0.7-0.5-1.5-0.8-2.3-1.4c-2.3-1.9-2.5-4-0.6-6.4c0.7-0.9,1.7-1.7,2.7-2.4c0.4-0.2,1.1-0.5,0.6-1.1c-0.6-0.9-0.6-2-1.2-3
		c-0.9-1.4-0.5-2.4,0.8-3.1c1.4-0.7,1.7-1.9,1.4-3.3c-0.5-4.5-0.4-8.9-0.9-13.4c-0.1-1.3,0.2-2.5,0.2-3.7c0-1.3-0.1-2.5-1.2-3.3
		c-1.2-1.1-1.1-2.3-0.2-3.6c0.7-1.1,1.4-2,1.2-3.4c0-0.4,0.1-0.7,0.5-0.9c3.4-2.8,6.9-5.9,11.4-7.1c3.3-0.8,6.2-2.5,8.7-4.9
		c0.7-0.7,1.5-1.5,2.7-1.4c2.5-0.5,5-0.5,7.5-0.4c3.6,0.2,7,0.2,10.6-0.4c2.6-0.5,5.1,0.8,7.7,0.7c-1.2,3.2-0.2,6.8-1.4,9.8
		c-1.9,5.1-2.3,10.4-3.3,15.7c-2,10.1-5.1,19.9-9.5,29.3c-2,4.3-4.7,8.3-6,12.9c-1.1,3.6-2.4,6.8-4.4,10c-2.1,3.2-3.8,6.8-6.8,9.4
		c-2.7,2.4-4.4,5.6-5.1,9.1c-0.1,0.5-0.4,0.9-0.7,1.3C143.9,139.3,140.4,143.1,137,146.8z"/>
	<path class="st9" d="M123.6,138.9c-5.9-3.1-12.2-0.7-14.6,5.6c-0.4,0.8-0.2,1.7-0.1,2.6c0.4,2.1,0.5,4.3-0.1,6.5
		c-0.1,0.4,0,0.8-0.5,0.9c-0.5,0.1-0.9-0.2-1.1-0.6c-1.8-5-5.3-8.1-10.1-10.1c-1.4-0.6-2.4-2.3-3.6-3.3c-2.7-2.4-5.6-4.5-9-6.3
		c2.6-1.1,4.4-2.7,6.5-4c2.3-1.4,3-4.7,2-8.3c-1.4-5-5.2-7.1-10-8.1c-0.6-0.1-1.2-0.1-1.7-0.4c-0.8-0.4-2,0.5-2.4-0.7
		c-0.5-1.5-1.1-3,0.2-4.6c2.5-3.4,4.5-7.1,6.5-10.8c1.2-2.3,3-4.3,5.1-5.8c1.7-1.2,3.4-2.3,4.5-3.9c2.4-3.7,5.8-6,8.9-8.9
		c6.8-6.2,13.3-12.6,20.4-18.4c0.5,1.2-0.6,1.5-1.2,2.1c1.2,1.3,2.6,2,4.2,2.8c1.3,0.7,1.2,1.7,0,2c-3.9,1.2-4.3,3.9-4,7.4
		c0.2,3.2,0.2,6.4-0.1,9.7c0,0.2,0,0.8,0.1,0.8c2.1,0.6,0.9,2.1,0.9,3.3c0,0.6-0.1,1.2-0.1,1.9c0,1.1,0.4,2,1.8,1.5
		c0.2-0.1,0.6-0.2,0.8,0.1c0.1,0.4,0,0.7-0.2,0.8c-2.8,1.2-1.9,3.9-2.5,6c-0.2,1.1,0.2,2.4,0.4,3.6c0.5,6.6-0.4,13.4-0.4,20
		c0,0.4-0.2,0.7,0.1,1.1c1.7,1.5,0.9,3.1,0.2,4.7c-0.7,1.7-0.5,3.6-0.6,5.3C123.7,135.2,123.7,137,123.6,138.9z"/>
	<path class="st10" d="M135.8,52.2c0.8,0.5,1.1,0.9,0.4,1.7c-0.8,0.8-0.5,2.3-1.9,2.7c-0.4,0.1-0.6,1.8,0.6,2.3
		c1.4,0.6,1.7,1.8,1.5,3.1c-0.7,5.8,0.4,11.6,0.6,17.4c0.1,2,0.4,3.9-2.4,4.4c-0.5,0.1-0.8,0.8-0.7,0.9c2,0.9,0.2,4.3,3.4,4.5
		c-1.8,1.2-3.3,2-4.5,3.2c-2.3,2.4-2,4.5,0.6,6.4c0.9,0.7,2.4,0.8,3.1,1.7c0.6,0.7-0.5,1.8-0.4,3c0.7,4.7,0.2,9.5,0.9,14.2
		c0.4,2.7,0.1,5.5-0.4,8.1c-0.1,0.8-0.6,0.8-1.1,0.9c-1.2,0.4-2,1.1-1.3,2.5c-0.2,0-0.5,0-0.7,0.1c-0.7,0.4-1.3,0.4-1.7-0.6
		c-0.2-0.8,0.1-1.3,0.7-1.7c0.5-0.4,1.7-0.2,1.7-1.1c-0.1-1.9,1.3-3.4,0.8-5.2c-0.8-3.7-0.8-7.5-0.6-11.3c0.1-1.5-0.5-3.3-0.6-5
		c-0.1-1.1-0.5-2.1,0.2-3.2c0.4-0.7-0.2-0.8-0.6-1.1c-0.8-0.5-1.8-0.9-2.6-1.4c-2.5-1.7-2.6-3.7-0.7-5.9c1.2-1.4,2.7-2.3,4.4-3.3
		c-1.2-0.6-2-1.2-1.8-2.6c0-0.1,0-0.5-0.1-0.5c-2.3-1.9-0.7-2.5,1.1-3.2c0.9-0.4,1.2-1.3,1.1-2.3c-0.6-4.2-0.4-8.3-0.9-12.5
		c-0.2-1.7-0.2-3.3,0.1-5c0.4-1.8,0.5-3.6-1.5-4.7c-0.9-0.6-1.1-1.7,0-2.5c0.4-0.2,0.5-0.6,0.6-0.9c1.3-2.8,1.3-2.8-1.7-4
		c-0.6-0.2-1.2-0.5-1.7-0.8c-2-1.3-2.1-2.3-0.6-4c2.1-2.5,3.4-5.6,5.9-7.9c0.9-0.9,1.3-2.1,2.6-0.7c0.9,0.8,0.1,1.5-0.5,1.9
		c-2,1.7-3.1,4.2-4.6,6.2c-0.1,0.2-0.4,0.5-0.6,0.7c-1.3,1.5-1.1,2.5,0.6,3.6C133.8,50.9,135.1,51,135.8,52.2z"/>
	<path class="st1" d="M135.8,52.2c-0.9-0.4-2-0.7-2.8-1.2c-3-1.4-3.2-2.6-0.8-5.1c2-1.2,3-3.6,5.1-4.7c3-1.7,6-3.2,9.5-3.6
		c1.4-0.7,2.8-0.5,4.3-0.1c0.7,0.1,1.3,0.2,1.9-0.2c1.1-0.1,1.9-0.7,3-0.8c0.9,0.6,1.9,1.1,2.8,1.7c-2,1.7-4.2,3.4-6.2,5.1
		c-0.6,0.5-1.4,0.7-2.3,0.8c-3.1,0.8-6,1.9-8.7,3.7C139.6,49,138.1,51,135.8,52.2z"/>
	<path class="st11" d="M169,33c4.7-2.3,9.8-4,14.9-5.6c1.3-0.4,1.3,0.1,1.1,1.1c-0.2,1.3-0.9,2.6-0.8,4c-0.5,0.2-0.9,0.2-1.4,0
		c-0.8-0.1-1.7-0.1-2.4-0.6c-2.3-0.5-4.4,0.7-6.5,0.4c-1.3-0.2-2,0.2-2.4,1.3C170.7,33.6,169.7,33.6,169,33L169,33z"/>
	<path class="st12" d="M146.7,37.7c-2.3,0.8-4.6,1.7-6.9,2.8c-2,1.1-4.2,2-5.5,4c-0.5,0.7-1.3,1.3-2.4,1.4c1.8-2.3,2.7-5.1,5.2-6.9
		c0.4-0.2,0.7-0.6,0.5-1.1c0.2-1.1,1.1-0.7,1.7-0.7C141.9,37.4,144.2,37.5,146.7,37.7z"/>
	<path class="st13" d="M180.5,31.8c0.8,0.2,2-1.1,2.4,0.6c-0.1,0.2-0.2,0.6-0.4,0.8c-0.2,0.4-0.4,0.9-0.8,0.8
		c-0.5,0-0.6-0.6-0.7-0.9C180.8,32.7,180.7,32.3,180.5,31.8z"/>
	<path class="st14" d="M155.9,36.4c-0.8,0.9-1.7,1.8-3,0.8C153.6,36,154.3,34.9,155.9,36.4z"/>
	<path class="st15" d="M169,33.1c0.8,0.1,1.8,0,2.6,0.5C170.6,34.4,169.7,33.8,169,33.1z"/>
</g>
</svg>
