<?xml version="1.0" encoding="utf-8"?>
<!-- Generator: Adobe Illustrator 20.0.0, SVG Export Plug-In . SVG Version: 6.00 Build 0)  -->
<svg version="1.1" id="Layer_1" xmlns="http://www.w3.org/2000/svg" xmlns:xlink="http://www.w3.org/1999/xlink" x="0px" y="0px"
	 viewBox="0 0 272 180" style="enable-background:new 0 0 272 180;" xml:space="preserve">
<style type="text/css">
	.st0{fill:#4D4D4D;}
</style>
<g>
	<path class="st0" d="M19.7,112.8c0.3-0.1,0.6-0.1,0.8-0.3c4.8-2.6,9.6-5.3,14.3-7.9c0.1-0.1,0.3-0.2,0.5-0.4
		C33,97.8,30.5,91.4,28,84.6c8.8,4.6,17.6,8.5,26.7,11.9c9.1,3.4,18.3,6.2,27.9,8.4c-1.3,4.7-2.6,9.3-4,14
		c38.2,8.8,76.2,8.8,114.4,0c-0.9-3.2-1.8-6.2-2.6-9.3c-0.3-1.2-0.6-2.4-1-3.6c-0.3-0.9-0.1-1.2,0.8-1.5
		c11.8-2.8,23.4-6.5,34.5-11.2c6-2.6,11.9-5.5,17.8-8.2c0.3-0.1,0.5-0.3,1.1-0.5c-0.2,0.6-0.3,1-0.4,1.3c-2.2,5.7-4.3,11.3-6.5,17
		c-0.4,1-0.3,1.5,0.7,2.1c4.8,2.6,9.5,5.2,14.5,8c-2.7,1.3-5.2,2.6-7.8,3.6c-6,2.5-12,5-18,7.4c-0.9,0.4-1.2,0.7-0.9,1.7
		c1.3,4.2,2.4,8.4,3.7,12.8c-2.4,0.8-4.7,1.7-7.1,2.4c-13.9,4.5-28.2,8-42.6,10.2c-9.2,1.5-18.5,2.5-27.9,2.9
		c-2.4,0.1-4.9,0.2-7.3,0.3c-0.3,0-0.6,0.1-1,0.2c-4.8,0-9.6,0-14.4,0c-0.4-0.1-0.7-0.2-1.1-0.2c-11.4-0.3-22.7-1.4-34-3.1
		c-16.7-2.6-33-6.6-48.9-12.2c-2.1-0.7-1.8-0.4-1.2-2.4c1.1-4.1,2.3-8.1,3.5-12.2c-0.4-0.2-0.8-0.3-1.1-0.5
		c-6.6-2.7-13.2-5.4-19.7-8.2c-2.1-0.9-4.1-1.9-6.1-2.8C19.7,113,19.7,112.9,19.7,112.8z M44.5,137.7c60.9,20.6,121.6,20.6,182.6,0
		c-2.4-8.5-4.8-16.8-7.2-25.1c-56.2,19.3-112.1,19.3-168.2,0C49.3,120.9,46.9,129.2,44.5,137.7z M224.5,123.3
		c8.1-3.4,16-6.7,23.9-10c0-0.1,0-0.3,0-0.4c-4.7-2.6-9.4-5.2-14-7.8c2.2-5.7,4.3-11.3,6.4-17c-15.4,7.4-31.1,13.2-47.5,17.5
		c0.2,0.1,0.3,0.2,0.5,0.2c8.1,1.4,16.3,3,24.5,4.3c1.9,0.3,3.2,0.9,3.4,3c0,0.5,0.2,0.9,0.4,1.4
		C222.7,117.2,223.5,120.1,224.5,123.3z M78.1,105.7c-7.9-2.6-16-4.9-23.8-7.8c-7.9-2.9-15.6-6.4-23.3-9.7c0.1,0.2,0.1,0.5,0.2,0.8
		c1.9,4.9,3.7,9.9,5.7,14.8c0.4,1,0.2,1.4-0.7,1.9c-3.9,2.1-7.9,4.3-11.8,6.5c-0.4,0.2-0.7,0.5-1.1,0.7c0,0.1,0,0.3,0,0.4
		c7.9,3.3,15.8,6.6,23.8,10c0.2-0.7,0.4-1.1,0.5-1.5c1-3.4,2-6.8,2.9-10.2c0.2-0.7,0.6-1,1.3-1.2c5.9-1,11.9-2.1,17.8-3.1
		C72.4,106.7,75.4,106.2,78.1,105.7z"/>
	<path class="st0" d="M182.2,73c0.2,25.4-20.9,46.9-47.2,46.5c-24.6-0.3-46.2-20.5-45.9-47.2c0.3-26,21.7-46.3,47.2-45.9
		C161.8,26.7,182.4,47.7,182.2,73z M178.6,73c0-23.2-18.7-42.9-42.9-42.9c-24.6,0-43,20.1-43,42.7c0,23.8,19.2,43.2,42.8,43.2
		C159.2,115.9,178.6,96.6,178.6,73z"/>
	<path class="st0" d="M67.5,123.6c-1.5-1.5-3.1-2.2-5-1.4c-1.3,0.5-2.1,1.5-2.4,2.8c-0.1,0.5,0.1,1,0.3,1.5c0,0.1,0.7,0.2,0.8,0.1
		c0.3-0.5,0.5-1,0.6-1.5c0-0.2-0.1-0.5-0.1-0.9c0.4,0.4,0.8,0.8,1.5,1.3c-0.4-1.8,0.5-2.6,1.9-3.1c0.5,4.3,1.1,8.6,1.6,13.1
		c0.4-0.3,0.6-0.4,0.7-0.5c2.3-3,4.5-6.1,6.8-9.2c0.5-0.7,0.9-1.5,0-2.4c1.4,0.3,2.8,0.7,4.3,1.1c-2.8,1.2-4.1,3.8-5.8,5.9
		c-2.2,2.6-4.3,5.3-6.4,8c-0.2,0.2-0.4,0.4-0.9,0.8c-0.7-4.5-1.3-8.7-2-12.9c-0.1-0.1-0.1-0.2-0.2-0.2c0,0.2-0.1,0.3-0.1,0.5
		c-0.7,1.5-1.8,1.9-3.2,1.4c-1.4-0.5-2-1.9-1.6-3.3c1-3.5,6.4-5.2,9.2-2.9C68,122.2,68.2,122.8,67.5,123.6z"/>
	<path class="st0" d="M137,132.8c1.8,4,3.5,8,5.3,11.9c0.2,0,0.4,0,0.5,0c1.3-3.9,2.7-7.8,3.9-11.7c0.2-0.5-0.3-1.2-0.5-1.8
		c1.2-0.1,2.6-0.2,4.2-0.3c-2.1,1.6-2.5,3.9-3.4,6c-1.4,3.6-2.8,7.1-4.2,10.7c-0.1,0.3-0.3,0.6-0.7,1.3c-2-4.1-3.8-8-5.6-11.8
		c-0.3,0.7-0.5,1.5-1,1.9c-0.5,0.4-1.4,0.6-2.1,0.5c-1.7-0.2-2.5-1.8-2.1-3.7c0.7-3.3,4.5-5.5,7.6-4.5c0.8,0.3,1.4,0.6,0.9,1.6
		c-0.9-0.2-1.8-0.6-2.6-0.6c-2.3-0.1-4.2,1.8-4,4.1c0,0.5,0.4,1,0.7,1.5c0.1,0.1,0.8-0.1,0.8-0.2c0-0.6,0-1.2-0.1-1.8
		c0-0.1-0.2-0.3-0.2-0.6c0.6,0.3,1.2,0.6,1.8,1C135.2,134.9,135.7,133.7,137,132.8z"/>
	<path class="st0" d="M98.3,145.6c2.4-0.8,1.9-2.7,2.2-4.1c0.3-1.5,0.5-3,0.6-4.6c0-0.9-0.3-1.9-0.5-3c2.9,0.5,6.1,0.7,9.2,1.5
		c2.9,0.8,4.3,3.1,4.1,5.6c-0.2,2.6-2.4,4.8-5.4,5.4c-2.3,0.5-4.5,0-6.7-0.3C100.7,145.9,99.7,145.8,98.3,145.6z M106.3,145.7
		c3,0,5.2-1.8,5.6-4.6c0.3-2.4-1.2-4.8-3.7-5.4c-1.4-0.3-2.8-0.4-4.2-0.5c-0.3,0-0.9,0.5-0.9,0.9c-0.3,1.8-0.6,3.5-0.8,5.3
		C101.9,145.3,102.3,145.7,106.3,145.7z"/>
	<path class="st0" d="M83.9,143.1c0.5-0.8,1.1-1.5,1.3-2.3c0.5-2.3,1-4.7,1.3-7c0.1-0.7-0.2-1.5-0.3-2.3c1.7,0.3,3.7,0.5,5.6,1
		c1.5,0.4,2.8,1.2,2.9,3c0.2,2-1.1,2.9-2.8,3.6c1.5,2.6,2.3,5.6,5.8,6.3c-0.8,0.6-1.4,0.8-2.7,0.1c-1.1-0.6-2.1-1.6-2.9-2.6
		c-0.8-1-1.3-2.2-2-3.3c-0.2-0.3-0.6-0.8-0.9-0.8c-1.5-0.3-1.8-0.7-2,1.2c-0.1,1.3-0.8,2.6,0.6,3.9
		C86.1,143.6,84.9,143.3,83.9,143.1z M87.5,137.7c1.1,0.1,2,0.3,2.9,0.4c1.2,0.1,2.1-0.6,2.2-1.8c0.1-0.8-0.1-1.9-0.7-2.4
		c-0.8-0.6-2-0.7-3-1c-0.1,0-0.4,0.2-0.4,0.4C88.2,134.7,87.9,136.1,87.5,137.7z"/>
	<path class="st0" d="M165.1,143.8c-0.6-3.2-0.3-6.3-1.7-9.1c0.7-0.1,1.6-0.2,2.3-0.2c0,1.2-0.1,2.4,0,3.6c0.2,2.8,0.6,5.7,0.6,8.7
		c-1.8-1.4-3.6-2.7-5.4-4.1c-1.8-1.4-3.5-2.8-5.4-4.1c0.4,2.9-0.2,5.9,1.4,8.7c-0.8,0.1-1.8,0.2-2.5,0.2c0.1-1,0.4-2,0.4-3
		c-0.1-2.1-0.2-4.2-0.5-6.2c-0.1-0.9-0.5-1.7-0.8-2.7c0.7-0.2,1.5,0,2.3,0.6c2.7,2.2,5.4,4.4,8.2,6.6
		C164.1,143.2,164.5,143.4,165.1,143.8z"/>
	<path class="st0" d="M202,128c0.1,0.6,0.3,1.2,0.5,2.2c-2.1-1.5-4-1.4-6-0.7c-3.1,1.1-4.6,4-3.4,6.8c1.2,3,4.6,4.3,7.6,3
		c2.7-1.2,2.8-3.3,0.3-5.2c1.1-0.3,2.1-0.6,3-0.9c0.2,1.3,0.5,2.6,0.6,4c0,0.4-0.1,1.1-0.4,1.3c-2.4,1.6-4.9,2.5-7.8,2.2
		c-2.4-0.2-4.4-1.3-5.3-3.7c-0.9-2.3-0.2-4.4,1.5-6.2c2-2.1,4.6-2.6,7.3-2.8C200.6,128,201.2,128,202,128z"/>
	<path class="st0" d="M115.1,135.6c2.4,0.1,4.9,0.3,7.4,0.4c1.3,0.1,0.8,1,0.8,1.8c-1.3-1.3-3-1.2-4.6-1.1c-0.3,0-0.8,0.5-0.8,0.8
		c-0.2,1.1-0.3,2.3-0.4,3.6c1.7,0,3.3,0,4.9,0c0,0.4,0,1.1,0,1.6c-1.5-0.2-2.9-0.5-4.3-0.7c-0.2,0-0.7,0.4-0.7,0.7
		c-0.1,0.9-0.2,1.9,0,2.8c0.1,0.4,0.5,1.1,0.9,1.2c1.9,0.6,3.9,0.8,5.5-0.8c0.1-0.1,0.3-0.2,0.4-0.3c0,0,0.1,0,0.1,0
		c0,1.4-1,2.4-2.3,2.3c-2.6-0.2-5.3-0.4-7.9-0.5c2.3-3,1.4-6.6,1.7-9.9C116,136.9,115.4,136.2,115.1,135.6z"/>
	<path class="st0" d="M216.1,132.9c0,2.4-0.3,2.9-2.2,3.4c-2.3,0.7-4.7,1.4-7.3,2.2c1.7-2.3,0.3-4.3-0.3-6.2
		c-0.6-1.9-0.4-4.3-2.9-5.2c2.6-0.8,5.1-1.6,7.6-2.3c0.4-0.1,1,0.6,1.4,1.2c-2.1-0.8-3.7,0.3-5.6,0.9c0.4,1.4,0.7,2.8,1.1,4.5
		c1.6-0.7,3.2-1.3,4.7-1.9c0.1,0.3,0.3,1,0.5,1.6c-1.6,0.3-3.3,0.6-5.1,0.9c0.5,1.4,0.8,2.5,1.3,3.6c0.2,0.3,0.7,0.7,1.1,0.7
		c2.1-0.1,4-0.4,5-2.6C215.6,133.5,215.8,133.3,216.1,132.9z"/>
	<path class="st0" d="M191.3,142.3c-1.2,0.3-2.4,0.5-3.6,0.8c0.4-1.9-1.1-2.8-1.9-4c-0.2-0.3-1-0.2-1.5-0.1
		c-3.1,0.4-3.8,1.2-4.1,4.3c0,0.3,0.1,0.7,0.2,1.1c-0.8,0.1-1.7,0.3-2.3,0.4c0.5-1.1,1.1-2.2,1.5-3.4c0.7-2,1.1-4,1.9-6
		c0.5-1.4,0.5-2.4-1.1-3c2-0.9,2.4-0.8,3.6,0.8c1.8,2.5,3.7,4.9,5.6,7.3C190,141.2,190.7,141.7,191.3,142.3z M185.2,138.1
		c-0.9-1.2-1.6-2.2-2.4-3.4c-0.4,1.5-0.8,2.7-1.2,4.1C182.9,138.5,183.9,138.4,185.2,138.1z"/>
	<path class="st0" d="M75.2,129c2.5,0.5,4.9,1.1,7.3,1.6c1.2,0.3,1.1,1,0.7,2c-1.2-1.7-3.1-1.7-5-2.1c-0.4,1.4-0.8,2.8-1.3,4.5
		c1.8,0.2,3.4,0.4,5.1,0.7c-0.1,0.3-0.2,1-0.3,1.6c-1.6-0.6-3.1-1.1-4.8-1.7c-0.3,1.4-0.6,2.5-0.6,3.6c0,0.5,0.5,1.2,0.9,1.4
		c1.8,0.8,3.6,1.3,5.4,0c0.1-0.1,0.4-0.1,0.6-0.2c-0.5,1.6-1.5,2.2-3,1.9c-2.5-0.5-5-1.1-7.9-1.8c2.6-1.2,2.3-3.5,2.8-5.5
		C75.6,133.1,76.9,131.1,75.2,129z"/>
	<path class="st0" d="M176.2,145.2c-1,0.1-2.1,0.3-3.6,0.5c1.3-1.2,0.8-2.4,0.6-3.6c-0.4-2.5-0.7-5-1.1-7.7c-1.8,0.6-3.5,1.2-5,1.7
		c0.2-1.5,0.5-1.7,2.1-1.9c3.2-0.4,6.4-1,9.7-1.5c-0.2,0.5-0.4,1.2-0.7,2c-1.4-1.5-2.7-0.3-4.3-0.4
		C174.6,138,174.4,141.8,176.2,145.2z"/>
	<path class="st0" d="M148.8,136c1-0.1,2.1-0.1,3-0.2c-0.6,3.9-0.3,7.8,0.7,11.8c-0.8,0.1-1.9,0.2-3.4,0.3c1.4-1.3,1-2.7,0.9-4
		c-0.1-2-0.2-3.9-0.5-5.8C149.5,137.4,149.1,136.8,148.8,136z"/>
	<path class="st0" d="M116.3,47.2c-2.3,2.2-4.5,4.4-5.7,7.4c-0.5,1.3-0.4,2.5,0.1,3.8c7.7,17.7,15.3,35.5,23,53.2
		c0.2,0.5,0.4,0.9,0.5,1.4c-20-0.1-38.5-17.1-38.5-39c1.6,0.6,3.2,1.5,4.8,1.9c3.9,0.9,9.5-1.3,10.9-5.1c1.9-5.2-0.4-10-5.6-11.6
		c-0.5-0.1-1-0.2-1.8-0.3c0.5,0.5,0.7,0.8,1,1c2.2,2.1,2.6,4.7,2.1,7.5c-0.2,1.3-1.1,2.3-2.4,2.5c-1.4,0.3-2.9,0.2-3.8-1.1
		c-0.5-0.8-1-1.8-1.2-2.8c-2.1-9.1,4-18.7,13.1-20.4c4.5-0.9,8.9-0.3,12.6,2.7c1.1,0.9,1.4,0.8,1.9-0.6c0.7-2,0.3-3.3-1.4-4.6
		c-2.3-1.7-5.1-2.1-7.9-2.3c-1.6-0.1-3.2,0-5,0c11.3-8.8,31.7-10.3,46,0.9c-1.3-0.1-2.5-0.1-3.7-0.2c-1,0-2.1-0.5-3.5,0.3
		c0.6,0.3,0.8,0.4,1,0.5c2.8,1,4,3,3.3,5.9c-0.9,3.3-1.9,6.6-3.2,9.9c-5,13.2-10.1,26.5-15.1,39.7c-0.1,0.3-0.2,0.6-0.3,0.8
		c-0.1,0.2-0.4,0.5-0.5,0.5c-0.2,0-0.5-0.3-0.6-0.5c-0.4-0.9-0.8-1.8-1.2-2.7c-5.9-14.5-11.8-28.9-17.6-43.4
		C117.1,50.9,116.8,49.1,116.3,47.2z"/>
	<path class="st0" d="M136.5,113.1c1.3-3.2,2.5-6.4,3.8-9.5c6.8-16.4,13.7-32.9,20.6-49.3c1-2.5,2.5-4.8,3.8-7.2
		c8.3,8.1,13.6,24.1,8.1,39.6C166.4,104.9,149.6,113.2,136.5,113.1z"/>
</g>
</svg>
