<?xml version="1.0" encoding="utf-8"?>
<!-- Generator: Adobe Illustrator 20.0.0, SVG Export Plug-In . SVG Version: 6.00 Build 0)  -->
<svg version="1.1" id="Layer_1" xmlns="http://www.w3.org/2000/svg" xmlns:xlink="http://www.w3.org/1999/xlink" x="0px" y="0px"
	 viewBox="0 0 272 180" style="enable-background:new 0 0 272 180;" xml:space="preserve">
<style type="text/css">
	.st0{fill:#F48FB1;}
</style>
<g>
	<path class="st0" d="M70.5,112.9c0.4-2.3,0.7-4.6,1.3-6.8c4.7-17.4,15.9-28.5,33.3-33.1c0.4-0.1,0.8-0.1,1.2-0.1
		c0.3,4.3,0.5,8.4,0.8,12.5c-2.1,0.8-4.2,1.6-6.2,2.6c-10.3,5.4-16.3,13.9-17.5,25.6c-1.8,17.5,10.7,32.9,28.1,35
		c17.5,2.1,33.4-10.1,35.6-27.5c1.7-13.2-3.4-23.6-14.2-31.4c-0.9-0.6-1.7-1.6-2.1-2.5c-2-4.2-2.6-8.6-2.2-13.5c2.4,1,4.8,1.8,6.9,3
		c13.9,7.4,22.2,18.9,24.2,34.5c3.2,24.2-13.5,46.3-37.8,49.9c-26,3.9-47.4-14.6-50.8-37.1c-0.2-1.2-0.4-2.3-0.7-3.5
		C70.5,117.9,70.5,115.4,70.5,112.9z"/>
	<path class="st0" d="M165.4,119.7c-0.3-4.2-0.5-8.3-0.8-12.6c10.4-3.2,17.9-9.8,21.8-20.3c2.8-7.7,2.5-15.3-0.4-22.9
		c-4.8-12.5-21.3-25.7-42.8-17.5c0-4.4,0-8.7,0-13.2c10.3-4,28.1-3.1,41.4,8c14.5,12,20,31.3,14,49.2
		C192.7,108,177.1,118,165.4,119.7z"/>
	<path class="st0" d="M138.7,50c0,1.6,0,3.1,0,4.7c0,2.4-1.6,4-4,4c-9.8-0.3-19.5-0.6-29.3-0.9c-1.8-0.1-3.1-1.2-3.5-3.1
		c-0.8-3.3-1.6-6.5-2.1-9.8c-0.2-1.1,0.2-2.8,0.9-3.6c6.7-6.9,13.6-13.7,20.5-20.6c1.2-1.2,2.7-1.3,4.3-0.9c2.9,0.6,5.8,1.3,8.7,1.9
		c2.6,0.6,3.7,1.9,3.8,4.5c0.2,5.5,0.3,11,0.4,16.4C138.5,45.1,138.6,47.5,138.7,50C138.7,50,138.7,50,138.7,50z"/>
	<path class="st0" d="M126.4,62.7c-0.8,3.3-1.7,6.1-2.1,8.9c-1.6,12.3,2.7,22.3,12.4,29.9c2.5,1.9,3.8,4.1,4.7,6.9
		c1,3.3,1.4,6.7,1.1,10.4c-0.7-0.3-1.4-0.4-2-0.7c-16.8-6.8-26.3-19.2-28.9-37c-0.8-5.5-0.3-11,1-16.5c0.3-1.3,0.8-2,2.4-1.9
		C118.8,62.8,122.6,62.7,126.4,62.7z"/>
	<path class="st0" d="M97,62.3c-4.2,0-8.4,0-12.7,0c0.1-0.2,0.1-0.3,0.1-0.3c3-0.9,3.1-0.9,3.3-4.2c0.2-3.3,0.3-6.6,0.1-9.9
		c-0.1-1.8-0.8-3.7-1.7-5.4c-2.5-4.5-5.3-8.9-8-13.2c-1.7-2.7-3.4-5.3-6.7-6.3c3.4,0,6.8,0,10.8,0c-2,0.9-1.9,2.1-1.1,3.3
		c3.2,5.4,6.3,10.9,9.5,16.3c0.1,0.1,0.2,0.2,0.5,0.4c0.5-0.8,0.9-1.6,1.3-2.4c2.3-4.1,4.6-8.1,7-12.2c0.3-0.6,0.7-1.2,1-1.9
		c0.5-1.3,0.8-2.7-1-3.6c3.1,0,6.3,0,9.4,0c-4.5,0.8-6.2,4.6-8.2,7.9c-2.3,3.7-4.4,7.5-6.7,11.2c-1.2,2-1.7,4.1-1.6,6.4
		c0.1,3.3,0.1,6.6,0.2,9.9c0.1,2.6,0.7,3.2,3.3,3.4c0.5,0,0.9,0.2,1.4,0.2C97,62.1,97,62.2,97,62.3z"/>
	<path class="st0" d="M162.7,126.1c2.4,0,4.8,0,7.3,0c-1.7,0.4-1.6,1.5-1.3,2.8c1.5,5.7,3.1,11.4,4.6,17.1c0,0.1,0.2,0.2,0.5,0.6
		c2.5-6.8,5-13.5,7.5-20.2c0.2,0,0.3,0,0.5,0c2.3,6.7,4.7,13.4,7,20.1c0.1,0,0.3,0,0.4,0c0.9-3,1.8-5.9,2.7-8.9
		c0.9-2.9,1.7-5.7,2.5-8.6c0.4-1.3,0.3-2.4-1.5-2.7c2,0,3.9,0,5.9,0c-1.8,0.4-2.3,1.9-2.8,3.4c-2.2,6.6-4.3,13.2-6.5,19.8
		c-0.3,0.8-0.6,1.6-0.9,2.3c-0.2,0-0.4,0-0.6,0c-2.3-6.6-4.7-13.3-7-19.9c-0.1,0-0.2-0.1-0.4-0.1c-2.5,6.7-5,13.4-7.5,20.1
		c-0.2,0-0.4,0-0.6-0.1c-0.2-0.5-0.4-1-0.6-1.6c-2-6.8-4.1-13.6-6.1-20.4C165.4,127.9,164.8,126.4,162.7,126.1z"/>
	<path class="st0" d="M98.8,128.5c0.1,0.3,0.2,0.7,0.3,1c0.5,3,1.9,4.5,4.9,5.2c2.9,0.7,5.8-0.3,7.3-2.4c1.5-2.1,1.7-5.2-0.1-7.3
		c-1.6-2-3.6-3.6-5.4-5.4c-1.5-1.4-3.1-2.7-4.4-4.3c-2.3-3-2.9-6.3-1.1-9.7c1.8-3.4,5.1-4.1,8.6-4.1c1.5,0,3,0.4,4.5,0.5
		c0.9,0.1,1.2,0.5,1.1,1.4c-0.1,1.4,0,2.9-0.4,4.4c-0.1-0.3-0.3-0.7-0.4-1c-0.7-2.7-2.6-3.9-5.9-3.9c-2.8,0-4.9,1.4-5.6,3.8
		c-0.6,2.2,0,4.1,1.6,5.7c1.5,1.5,3.2,2.8,4.8,4.2c1.6,1.5,3.3,2.9,4.7,4.5c2.5,3.1,2.7,6.6,1.1,10.1c-1.6,3.5-4.6,5.1-8.2,5.2
		c-2.2,0.1-4.4-0.4-6.6-0.7c-1-0.1-1.4-0.8-1.4-1.9c0.1-1.7,0-3.4,0-5.1C98.4,128.5,98.6,128.5,98.8,128.5z"/>
	<path class="st0" d="M161.7,54.9c2.7,0,5.4,0,8.1,0c-2.1,0.3-2.2,1.8-2.2,3.4c-0.1,7.8-0.1,15.6-0.2,23.4
		c-0.1,4.9-3.6,9.5-8.1,11.1c0-0.1,0-0.2,0-0.3c3.7-2.6,5-6.3,5-10.6c0.1-8,0.1-15.9,0.1-23.9C164.3,55.7,164.1,55.7,161.7,54.9z"/>
</g>
</svg>
