<?xml version="1.0" encoding="utf-8"?>
<!-- Generator: Adobe Illustrator 20.0.0, SVG Export Plug-In . SVG Version: 6.00 Build 0)  -->
<svg version="1.1" id="Logo" xmlns="http://www.w3.org/2000/svg" xmlns:xlink="http://www.w3.org/1999/xlink" x="0px" y="0px"
	 viewBox="0 0 130 52.3" style="enable-background:new 0 0 130 52.3;" xml:space="preserve">
<style type="text/css">
	.st0{fill:#505050;}
	.st1{opacity:0.5;}
	.st2{opacity:0.8;fill:#A60000;}
	.st3{fill:#005016;}
	.st4{fill:#000C6A;}
	.st5{fill:#AFAFAF;}
</style>
<g>
	<path class="st0" d="M19.2,5v17c0,1.5,0.1,3.1,0.1,4.1h-3.3l-0.1-2.3h-0.1c-0.9,1.6-2.6,2.6-4.7,2.6C7.7,26.4,5,23.4,5,19
		c0-4.8,3-7.7,6.5-7.7c2,0,3.4,0.8,4.1,1.9h0.1V5H19.2z M15.5,17.6c0-0.3,0-0.7-0.1-0.9c-0.3-1.4-1.5-2.6-3.1-2.6
		c-2.3,0-3.6,2.1-3.6,4.8c0,2.6,1.3,4.6,3.6,4.6c1.5,0,2.8-1,3.1-2.6c0.1-0.3,0.1-0.7,0.1-1.1V17.6z M27,7.6c0,1.1-0.8,2-2.1,2
		c-1.2,0-2-0.9-2-2c0-1.1,0.8-2,2-2C26.2,5.6,27,6.5,27,7.6z M23.1,26.1V11.6h3.7v14.4H23.1z M30.7,15.9c0-1.7,0-3.1-0.1-4.3h3.2
		l0.2,2.2h0.1c0.6-1.1,2.2-2.5,4.6-2.5c2.5,0,5.1,1.6,5.1,6.2v8.6h-3.6v-8.2c0-2.1-0.8-3.6-2.8-3.6c-1.5,0-2.5,1-2.8,2.1
		c-0.1,0.3-0.1,0.8-0.1,1.2v8.5h-3.7V15.9z M47.5,22.7c0.8,0.5,2.4,1,3.7,1c1.6,0,2.3-0.7,2.3-1.6c0-1-0.6-1.5-2.4-2.1
		c-2.8-1-4-2.5-4-4.2c0-2.6,2.1-4.5,5.5-4.5c1.6,0,3,0.4,3.8,0.9l-0.7,2.6c-0.6-0.4-1.8-0.8-3.1-0.8c-1.3,0-2,0.6-2,1.5
		c0,0.9,0.7,1.4,2.5,2c2.6,0.9,3.8,2.3,3.9,4.4c0,2.6-2,4.5-5.9,4.5c-1.7,0-3.3-0.4-4.4-1L47.5,22.7z M60,15.9c0-1.7,0-3.1-0.1-4.3
		h3.1l0.1,2.1h0.1c0.7-1.1,2-2.5,4.4-2.5c1.9,0,3.4,1.1,4,2.7h0.1c0.5-0.8,1.1-1.4,1.8-1.8c0.8-0.6,1.7-0.9,2.9-0.9
		c2.4,0,4.8,1.6,4.8,6.3v8.5h-3.6v-8c0-2.4-0.8-3.8-2.6-3.8c-1.2,0-2.2,0.9-2.6,1.9c-0.1,0.4-0.2,0.8-0.2,1.2v8.7h-3.6v-8.4
		c0-2-0.8-3.4-2.5-3.4c-1.4,0-2.3,1.1-2.6,2.1c-0.1,0.4-0.2,0.8-0.2,1.2v8.5H60V15.9z M98.9,18.7c0,5.3-3.7,7.7-7.4,7.7
		c-4.1,0-7.2-2.8-7.2-7.4c0-4.7,3.1-7.7,7.5-7.7C96,11.3,98.9,14.3,98.9,18.7z M88,18.9c0,2.8,1.4,4.9,3.6,4.9c2.1,0,3.5-2,3.5-5
		c0-2.3-1-4.8-3.5-4.8C89.1,14,88,16.4,88,18.9z M101.9,16.3c0-2,0-3.4-0.1-4.7h3.2l0.1,2.8h0.1c0.7-2,2.4-3.1,3.9-3.1
		c0.4,0,0.6,0,0.9,0.1v3.4c-0.3-0.1-0.6-0.1-1.1-0.1c-1.8,0-2.9,1.1-3.3,2.8c-0.1,0.3-0.1,0.7-0.1,1.1v7.5h-3.6V16.3z M114.8,19.9
		c0.1,2.6,2.1,3.7,4.4,3.7c1.7,0,2.9-0.2,4-0.7l0.5,2.5c-1.2,0.5-3,0.9-5,0.9c-4.7,0-7.4-2.9-7.4-7.3c0-4,2.4-7.8,7.1-7.8
		c4.7,0,6.2,3.9,6.2,7c0,0.7-0.1,1.2-0.1,1.5H114.8z M121.1,17.3c0-1.3-0.6-3.5-3-3.5c-2.3,0-3.2,2-3.4,3.5H121.1z"/>
	<g class="st1">
		<path class="st2" d="M89.6,46.9H78.9V36.3h10.7V46.9z M81.2,44.6h5.9v-5.9h-5.9V44.6z"/>
		<path class="st3" d="M105.5,46.9H92.2V33.6h13.3V46.9z M94.5,44.6h8.6V36h-8.6V44.6z"/>
		<path class="st4" d="M125,46.9h-17V30h17V46.9z M110.5,44.6h12.2V32.4h-12.2V44.6z"/>
	</g>
	<g>
		<path class="st5" d="M5,31.5c1.2-0.2,2.7-0.3,4.3-0.3c2.9,0,5,0.7,6.3,1.9c1.4,1.3,2.2,3.1,2.2,5.6c0,2.6-0.8,4.6-2.3,6.1
			c-1.5,1.5-3.9,2.3-6.9,2.3C7.2,47.1,6,47,5,46.9V31.5z M7,45.3c0.5,0.1,1.3,0.1,2,0.1c4.3,0,6.7-2.4,6.7-6.6c0-3.7-2.1-6-6.3-6
			c-1,0-1.8,0.1-2.4,0.2V45.3z"/>
		<path class="st5" d="M28.5,39.6h-6.1v5.6h6.8v1.7h-8.8V31.3h8.4V33h-6.4v4.9h6.1V39.6z"/>
		<path class="st5" d="M31.6,44.5c0.9,0.6,2.2,1,3.6,1c2.1,0,3.3-1.1,3.3-2.7c0-1.5-0.8-2.3-2.9-3.1c-2.6-0.9-4.1-2.2-4.1-4.4
			c0-2.4,2-4.2,5.1-4.2c1.6,0,2.8,0.4,3.5,0.8l-0.6,1.6c-0.5-0.3-1.6-0.7-3-0.7c-2.1,0-2.9,1.3-2.9,2.3c0,1.5,1,2.2,3.1,3
			c2.6,1,4,2.3,4,4.6c0,2.4-1.8,4.5-5.5,4.5c-1.5,0-3.2-0.4-4-1L31.6,44.5z"/>
		<path class="st5" d="M45.3,31.3v15.6h-2V31.3H45.3z"/>
		<path class="st5" d="M60.7,46.2c-0.9,0.3-2.7,0.9-4.8,0.9c-2.4,0-4.3-0.6-5.8-2.1c-1.3-1.3-2.2-3.4-2.2-5.8c0-4.7,3.2-8.1,8.5-8.1
			c1.8,0,3.2,0.4,3.9,0.7l-0.5,1.6c-0.8-0.4-1.9-0.7-3.5-0.7c-3.8,0-6.3,2.4-6.3,6.3c0,4,2.4,6.3,6,6.3c1.3,0,2.2-0.2,2.7-0.4v-4.7
			h-3.2v-1.6h5.2V46.2z"/>
		<path class="st5" d="M63.8,46.9V31.3H66l5,7.9c1.2,1.8,2.1,3.5,2.8,5.1l0,0c-0.2-2.1-0.2-4-0.2-6.4v-6.5h1.9v15.6h-2l-5-7.9
			c-1.1-1.7-2.1-3.5-2.9-5.2l-0.1,0c0.1,2,0.2,3.9,0.2,6.5v6.7H63.8z"/>
	</g>
</g>
</svg>
