<?xml version="1.0" encoding="utf-8"?>
<!-- Generator: Adobe Illustrator 20.0.0, SVG Export Plug-In . SVG Version: 6.00 Build 0)  -->
<svg version="1.1" id="Layer_1" xmlns="http://www.w3.org/2000/svg" xmlns:xlink="http://www.w3.org/1999/xlink" x="0px" y="0px"
	 viewBox="0 0 272 180" style="enable-background:new 0 0 272 180;" xml:space="preserve">
<style type="text/css">
	.st0{fill:#0A56A2;}
	.st1{fill:#DE1F2B;}
</style>
<g>
	<path class="st0" d="M125.7,56.7c-0.1,0.2-0.2,0.3-0.3,0.5c-15.4,21.9-30.7,43.7-46.1,65.6c-0.2,0.3-0.5,0.5-0.9,0.5
		c-3.5,0-7,0-10.5,0c-0.2,0-0.3,0-0.6,0c0.1-0.2,0.2-0.4,0.3-0.5c2.8-4.1,5.7-8.1,8.5-12.2c10.5-14.9,20.9-29.9,31.4-44.8
		c2-2.8,4-5.7,6-8.5c0.1-0.2,0.2-0.3,0.3-0.5C117.8,56.7,121.8,56.7,125.7,56.7z"/>
	<g>
		<path class="st1" d="M251.8,119.9c-0.3,0-0.4,0-0.6,0c-4.2,0-8.5,0-12.7,0c-0.4,0-0.6-0.1-0.8-0.4c-4.5-6.5-8.9-12.9-13.4-19.4
			c-0.1-0.2-0.2-0.3-0.4-0.6c-1.2,1.7-2.4,3.4-3.5,5c3.6,5.1,7.1,10.2,10.7,15.3c-0.4,0.1-12.3,0.2-13.1,0.1c-1.3-2-2.7-4-4-6
			c-0.1,0.2-0.3,0.3-0.4,0.5c-1.2,1.7-2.4,3.5-3.6,5.2c-0.2,0.3-0.4,0.4-0.7,0.4c-3.8,0-7.7,0-11.5,0c-0.1,0-0.3,0-0.5,0
			c3.6-5.1,7.1-10.1,10.7-15.1c-0.5-0.7-1-1.4-1.5-2.1c-0.1-0.1-0.2-0.2-0.4-0.2c-0.1,0-0.3,0-0.4,0c-4.5,0-9.1,0-13.6,0
			c-0.2,0-0.4,0-0.7,0c0,0.3,0,0.5,0,0.7c0,5.4,0,10.7,0,16.1c0,0.2,0,0.4,0,0.7c-3.5,0-7,0-10.5,0c0,0,0,0,0,0c0,0,0,0,0,0
			c0-0.1,0-0.1,0-0.2c0-19.4,0-38.9,0-58.3c0,0,0-0.1,0-0.2c0.2,0,0.4,0,0.6,0c2.7,0,5.4,0,8.1,0c0.5,0,0.7,0.2,1,0.5
			c7.8,11.2,15.7,22.4,23.5,33.6c0.1,0.2,0.2,0.3,0.4,0.5c1.2-1.7,2.4-3.4,3.7-5.2c-6.8-9.8-13.5-19.6-20.3-29.4
			c0.2,0,0.3-0.1,0.4-0.1c4.2,0,8.3,0,12.5,0c0.4,0,0.5,0.2,0.7,0.4c4.3,6.2,8.6,12.4,13,18.7c0.2,0.2,0.3,0.4,0.5,0.7
			c0.1-0.2,0.3-0.3,0.4-0.5c3.6-5.1,7.2-10.2,10.8-15.3c0.9-1.2,1.7-2.5,2.6-3.7c0.2-0.3,0.4-0.4,0.7-0.4c3.7,0,7.4,0,11.1,0
			c0.1,0,0.3,0,0.4,0c0,0,0,0.1,0,0.1c0,0,0,0,0,0c0,0,0,0,0,0c0,0-0.1,0.1-0.1,0.1c-6.6,9.4-13.1,18.8-19.7,28.2c0,0,0,0,0,0.1
			C237.7,99.7,244.7,109.7,251.8,119.9z M199.1,92.6c-0.9-1.3-1.8-2.5-2.6-3.7c-0.9-1.2-1.7-2.4-2.6-3.5c-0.9-1.2-1.7-2.4-2.7-3.5
			c0,3.6,0,7.1,0,10.7C193.8,92.6,196.4,92.6,199.1,92.6z"/>
		<path class="st1" d="M31.4,99.3c0,6.8,0,13.6,0,20.5c-3.9,0-7.8,0-11.6,0c-0.1-0.4-0.1-58.2,0-58.8c0.2,0,0.4,0,0.6,0
			c2.3,0,4.6,0,6.9,0c4.1,0,8.2,0,12.2,0c1.2,0,2.4,0,3.6,0.1c5.8,0.4,10.4,2.9,13.4,8c1.5,2.4,2.3,5.1,2.6,7.9
			c0.2,1.3,0.2,2.7,0.2,4c-0.2,3.7-1.4,7.1-3.6,10c-2.5,3.4-5.8,5.7-9.8,7.1c-0.2,0.1-0.5,0.2-0.7,0.2c0.2,0.5,15.4,20.1,15.7,20.4
			c0-9.6,0-19.2,0-28.8c0-9.6,0-19.2,0-28.8c9.6,0,19.2,0,28.7,0c0.1,0.4,0.1,9.2,0,9.9c-1.4,0-2.8,0-4.2,0c-1.4,0-2.8,0-4.2,0
			c-1.4,0-2.8,0-4.2,0c-1.4,0-2.8,0-4.2,0c0,4.4,0,8.7,0,13c0.3,0,0.5,0,0.7,0c5.2,0,10.3,0,15.5,0c0.2,0,0.5,0,0.7,0
			c0,0.2,0,0.3,0,0.5c0,1.3,0,2.6,0,3.9c0,0.2-0.1,0.5-0.2,0.7c-1.1,1.6-2.3,3.1-3.4,4.7c-0.2,0.3-0.4,0.3-0.7,0.3
			c-4,0-8.1,0-12.1,0c-0.2,0-0.4,0-0.6,0c0,4.9,0,9.8,0,14.7c0.7,0,1.4,0,2.1,0c-0.1,0.2-0.1,0.3-0.2,0.4c-2.4,3.5-4.9,6.9-7.3,10.4
			c-0.2,0.3-0.4,0.4-0.7,0.3c-4.4,0-8.7,0-13.1,0c-1.6,0-3.3,0-4.9,0c-0.4,0-0.6-0.1-0.8-0.4c-5.3-6.6-10.6-13.2-15.9-19.8
			C31.8,99.6,31.6,99.4,31.4,99.3C31.5,99.3,31.5,99.3,31.4,99.3z M31.4,89.6c0.3,0,0.6,0,0.8,0c2.3,0,4.6,0,7,0
			c2.2,0,4.1-0.7,5.7-2.1c4.4-3.8,4.4-10.5,0.1-14.4c-1.5-1.3-3.2-2.1-5.2-2.2c-1.3-0.1-2.5,0-3.8,0c-1.4,0-2.9,0.1-4.3,0.2
			c-0.1,0-0.3,0-0.4,0C31.4,77.2,31.4,83.4,31.4,89.6z"/>
		<path class="st1" d="M129.9,119.9c0-12.3,0-24.5,0-36.8c-0.3,0.1-0.3,0.3-0.4,0.4c-2.5,3.5-4.9,7-7.4,10.4
			c-6,8.5-12.1,17-18.1,25.5c-0.2,0.3-0.4,0.4-0.8,0.4c-4,0-7.9,0-11.9,0c-0.1,0-0.3,0-0.5,0c0.2-0.2,0.3-0.4,0.4-0.6
			c5.4-7.7,10.8-15.4,16.2-23.1c8.2-11.6,16.3-23.2,24.5-34.8c0.3-0.4,0.5-0.5,1-0.5c2.4,0,4.8,0,7.2,0c0.2,0,0.4,0,0.7,0
			c0,3.1,0,6.2,0,9.3c0,3.1,0,6.2,0,9.3c0,3.1,0,6.2,0,9.3c0,3.1,0,6.2,0,9.2c0,0,0.1,0,0.1,0c0.1-0.1,0.2-0.3,0.3-0.4
			c2.7-3.7,5.3-7.4,8-11.1c6.1-8.5,12.2-17,18.3-25.4c0.2-0.3,0.5-0.4,0.9-0.4c2.6,0,5.2,0,7.8,0c0.2,0,0.4,0,0.6,0
			c0,19.7,0,39.4,0,59.1c-3.8,0-7.6,0-11.4,0c0-12.2,0.1-24.4,0.1-36.6c0,0-0.1,0-0.1,0c-0.1,0.1-0.2,0.3-0.3,0.4
			c-2.8,3.9-5.6,7.7-8.4,11.6c-5.9,8.1-11.8,16.2-17.6,24.2c-0.2,0.3-0.5,0.4-0.9,0.4c-2.4,0-4.9,0-7.3,0
			C130.4,119.9,130.2,119.9,129.9,119.9z"/>
		<path class="st1" d="M89.7,112c0,2.7,0,5.3,0,7.9c-2.1,0-4.1,0-6.2,0C83.7,119.5,89,112.6,89.7,112z"/>
	</g>
</g>
</svg>
